<mxfile host="app.diagrams.net" agent="Mozilla/5.0 (Windows NT 10.0; Win64; x64) AppleWebKit/537.36 (KHTML, like Gecko) Chrome/139.0.0.0 Safari/537.36" version="28.1.0" pages="2">
  <diagram name="Logico" id="hujB-MJRBeZqzlVF15vq">
    <mxGraphModel dx="1090" dy="591" grid="1" gridSize="10" guides="1" tooltips="1" connect="1" arrows="1" fold="1" page="1" pageScale="1" pageWidth="827" pageHeight="1169" math="0" shadow="0">
      <root>
        <mxCell id="0" />
        <mxCell id="1" parent="0" />
        <mxCell id="lfD9yJDUr12pzseTFkDa-67" value="Historial" style="shape=table;startSize=30;container=1;collapsible=1;childLayout=tableLayout;fixedRows=1;rowLines=0;fontStyle=0;align=center;resizeLast=1;html=1;fillColor=#f8cecc;strokeColor=#b85450;" parent="1" vertex="1">
          <mxGeometry x="50" y="500" width="180" height="150" as="geometry" />
        </mxCell>
        <mxCell id="lfD9yJDUr12pzseTFkDa-68" value="" style="shape=tableRow;horizontal=0;startSize=0;swimlaneHead=0;swimlaneBody=0;fillColor=none;collapsible=0;dropTarget=0;points=[[0,0.5],[1,0.5]];portConstraint=eastwest;top=0;left=0;right=0;bottom=1;" parent="lfD9yJDUr12pzseTFkDa-67" vertex="1">
          <mxGeometry y="30" width="180" height="30" as="geometry" />
        </mxCell>
        <mxCell id="lfD9yJDUr12pzseTFkDa-69" value="FK" style="shape=partialRectangle;connectable=0;fillColor=none;top=0;left=0;bottom=0;right=0;fontStyle=1;overflow=hidden;whiteSpace=wrap;html=1;" parent="lfD9yJDUr12pzseTFkDa-68" vertex="1">
          <mxGeometry width="30" height="30" as="geometry">
            <mxRectangle width="30" height="30" as="alternateBounds" />
          </mxGeometry>
        </mxCell>
        <mxCell id="lfD9yJDUr12pzseTFkDa-70" value="Clave" style="shape=partialRectangle;connectable=0;top=0;left=0;bottom=0;right=0;align=left;spacingLeft=6;fontStyle=5;overflow=hidden;whiteSpace=wrap;html=1;" parent="lfD9yJDUr12pzseTFkDa-68" vertex="1">
          <mxGeometry x="30" width="150" height="30" as="geometry">
            <mxRectangle width="150" height="30" as="alternateBounds" />
          </mxGeometry>
        </mxCell>
        <mxCell id="lfD9yJDUr12pzseTFkDa-71" value="" style="shape=tableRow;horizontal=0;startSize=0;swimlaneHead=0;swimlaneBody=0;fillColor=none;collapsible=0;dropTarget=0;points=[[0,0.5],[1,0.5]];portConstraint=eastwest;top=0;left=0;right=0;bottom=0;" parent="lfD9yJDUr12pzseTFkDa-67" vertex="1">
          <mxGeometry y="60" width="180" height="30" as="geometry" />
        </mxCell>
        <mxCell id="lfD9yJDUr12pzseTFkDa-72" value="" style="shape=partialRectangle;connectable=0;fillColor=none;top=0;left=0;bottom=0;right=0;editable=1;overflow=hidden;whiteSpace=wrap;html=1;" parent="lfD9yJDUr12pzseTFkDa-71" vertex="1">
          <mxGeometry width="30" height="30" as="geometry">
            <mxRectangle width="30" height="30" as="alternateBounds" />
          </mxGeometry>
        </mxCell>
        <mxCell id="lfD9yJDUr12pzseTFkDa-73" value="Fecha" style="shape=partialRectangle;connectable=0;top=0;left=0;bottom=0;right=0;align=left;spacingLeft=6;overflow=hidden;whiteSpace=wrap;html=1;" parent="lfD9yJDUr12pzseTFkDa-71" vertex="1">
          <mxGeometry x="30" width="150" height="30" as="geometry">
            <mxRectangle width="150" height="30" as="alternateBounds" />
          </mxGeometry>
        </mxCell>
        <mxCell id="lfD9yJDUr12pzseTFkDa-74" value="" style="shape=tableRow;horizontal=0;startSize=0;swimlaneHead=0;swimlaneBody=0;fillColor=none;collapsible=0;dropTarget=0;points=[[0,0.5],[1,0.5]];portConstraint=eastwest;top=0;left=0;right=0;bottom=0;" parent="lfD9yJDUr12pzseTFkDa-67" vertex="1">
          <mxGeometry y="90" width="180" height="30" as="geometry" />
        </mxCell>
        <mxCell id="lfD9yJDUr12pzseTFkDa-75" value="" style="shape=partialRectangle;connectable=0;fillColor=none;top=0;left=0;bottom=0;right=0;editable=1;overflow=hidden;whiteSpace=wrap;html=1;" parent="lfD9yJDUr12pzseTFkDa-74" vertex="1">
          <mxGeometry width="30" height="30" as="geometry">
            <mxRectangle width="30" height="30" as="alternateBounds" />
          </mxGeometry>
        </mxCell>
        <mxCell id="lfD9yJDUr12pzseTFkDa-76" value="Alergias" style="shape=partialRectangle;connectable=0;top=0;left=0;bottom=0;right=0;align=left;spacingLeft=6;overflow=hidden;whiteSpace=wrap;html=1;" parent="lfD9yJDUr12pzseTFkDa-74" vertex="1">
          <mxGeometry x="30" width="150" height="30" as="geometry">
            <mxRectangle width="150" height="30" as="alternateBounds" />
          </mxGeometry>
        </mxCell>
        <mxCell id="lfD9yJDUr12pzseTFkDa-77" value="" style="shape=tableRow;horizontal=0;startSize=0;swimlaneHead=0;swimlaneBody=0;fillColor=none;collapsible=0;dropTarget=0;points=[[0,0.5],[1,0.5]];portConstraint=eastwest;top=0;left=0;right=0;bottom=0;" parent="lfD9yJDUr12pzseTFkDa-67" vertex="1">
          <mxGeometry y="120" width="180" height="30" as="geometry" />
        </mxCell>
        <mxCell id="lfD9yJDUr12pzseTFkDa-78" value="" style="shape=partialRectangle;connectable=0;fillColor=none;top=0;left=0;bottom=0;right=0;editable=1;overflow=hidden;whiteSpace=wrap;html=1;" parent="lfD9yJDUr12pzseTFkDa-77" vertex="1">
          <mxGeometry width="30" height="30" as="geometry">
            <mxRectangle width="30" height="30" as="alternateBounds" />
          </mxGeometry>
        </mxCell>
        <mxCell id="lfD9yJDUr12pzseTFkDa-79" value="Enfermedades" style="shape=partialRectangle;connectable=0;top=0;left=0;bottom=0;right=0;align=left;spacingLeft=6;overflow=hidden;whiteSpace=wrap;html=1;" parent="lfD9yJDUr12pzseTFkDa-77" vertex="1">
          <mxGeometry x="30" width="150" height="30" as="geometry">
            <mxRectangle width="150" height="30" as="alternateBounds" />
          </mxGeometry>
        </mxCell>
        <mxCell id="lfD9yJDUr12pzseTFkDa-80" value="Cita" style="shape=table;startSize=30;container=1;collapsible=1;childLayout=tableLayout;fixedRows=1;rowLines=0;fontStyle=1;align=center;resizeLast=1;html=1;fillColor=#f8cecc;strokeColor=#b85450;" parent="1" vertex="1">
          <mxGeometry x="324" y="300" width="180" height="270" as="geometry" />
        </mxCell>
        <mxCell id="lfD9yJDUr12pzseTFkDa-81" value="" style="shape=tableRow;horizontal=0;startSize=0;swimlaneHead=0;swimlaneBody=0;collapsible=0;dropTarget=0;points=[[0,0.5],[1,0.5]];portConstraint=eastwest;top=0;left=0;right=0;bottom=1;" parent="lfD9yJDUr12pzseTFkDa-80" vertex="1">
          <mxGeometry y="30" width="180" height="30" as="geometry" />
        </mxCell>
        <mxCell id="lfD9yJDUr12pzseTFkDa-82" value="FK1" style="shape=partialRectangle;connectable=0;top=0;left=0;bottom=0;right=0;fontStyle=1;overflow=hidden;whiteSpace=wrap;html=1;" parent="lfD9yJDUr12pzseTFkDa-81" vertex="1">
          <mxGeometry width="30" height="30" as="geometry">
            <mxRectangle width="30" height="30" as="alternateBounds" />
          </mxGeometry>
        </mxCell>
        <mxCell id="lfD9yJDUr12pzseTFkDa-83" value="ClavePaciente" style="shape=partialRectangle;connectable=0;top=0;left=0;bottom=0;right=0;align=left;spacingLeft=6;fontStyle=5;overflow=hidden;whiteSpace=wrap;html=1;" parent="lfD9yJDUr12pzseTFkDa-81" vertex="1">
          <mxGeometry x="30" width="150" height="30" as="geometry">
            <mxRectangle width="150" height="30" as="alternateBounds" />
          </mxGeometry>
        </mxCell>
        <mxCell id="lfD9yJDUr12pzseTFkDa-84" value="" style="shape=tableRow;horizontal=0;startSize=0;swimlaneHead=0;swimlaneBody=0;collapsible=0;dropTarget=0;points=[[0,0.5],[1,0.5]];portConstraint=eastwest;top=0;left=0;right=0;bottom=0;" parent="lfD9yJDUr12pzseTFkDa-80" vertex="1">
          <mxGeometry y="60" width="180" height="30" as="geometry" />
        </mxCell>
        <mxCell id="lfD9yJDUr12pzseTFkDa-85" value="FK2" style="shape=partialRectangle;connectable=0;top=0;left=0;bottom=0;right=0;editable=1;overflow=hidden;whiteSpace=wrap;html=1;" parent="lfD9yJDUr12pzseTFkDa-84" vertex="1">
          <mxGeometry width="30" height="30" as="geometry">
            <mxRectangle width="30" height="30" as="alternateBounds" />
          </mxGeometry>
        </mxCell>
        <mxCell id="lfD9yJDUr12pzseTFkDa-86" value="ClaveDoctor" style="shape=partialRectangle;connectable=0;top=0;left=0;bottom=0;right=0;align=left;spacingLeft=6;overflow=hidden;whiteSpace=wrap;html=1;" parent="lfD9yJDUr12pzseTFkDa-84" vertex="1">
          <mxGeometry x="30" width="150" height="30" as="geometry">
            <mxRectangle width="150" height="30" as="alternateBounds" />
          </mxGeometry>
        </mxCell>
        <mxCell id="lfD9yJDUr12pzseTFkDa-87" value="" style="shape=tableRow;horizontal=0;startSize=0;swimlaneHead=0;swimlaneBody=0;collapsible=0;dropTarget=0;points=[[0,0.5],[1,0.5]];portConstraint=eastwest;top=0;left=0;right=0;bottom=0;" parent="lfD9yJDUr12pzseTFkDa-80" vertex="1">
          <mxGeometry y="90" width="180" height="30" as="geometry" />
        </mxCell>
        <mxCell id="lfD9yJDUr12pzseTFkDa-88" value="PK" style="shape=partialRectangle;connectable=0;top=0;left=0;bottom=0;right=0;editable=1;overflow=hidden;whiteSpace=wrap;html=1;" parent="lfD9yJDUr12pzseTFkDa-87" vertex="1">
          <mxGeometry width="30" height="30" as="geometry">
            <mxRectangle width="30" height="30" as="alternateBounds" />
          </mxGeometry>
        </mxCell>
        <mxCell id="lfD9yJDUr12pzseTFkDa-89" value="IdCita" style="shape=partialRectangle;connectable=0;top=0;left=0;bottom=0;right=0;align=left;spacingLeft=6;overflow=hidden;whiteSpace=wrap;html=1;" parent="lfD9yJDUr12pzseTFkDa-87" vertex="1">
          <mxGeometry x="30" width="150" height="30" as="geometry">
            <mxRectangle width="150" height="30" as="alternateBounds" />
          </mxGeometry>
        </mxCell>
        <mxCell id="lfD9yJDUr12pzseTFkDa-90" value="" style="shape=tableRow;horizontal=0;startSize=0;swimlaneHead=0;swimlaneBody=0;collapsible=0;dropTarget=0;points=[[0,0.5],[1,0.5]];portConstraint=eastwest;top=0;left=0;right=0;bottom=0;" parent="lfD9yJDUr12pzseTFkDa-80" vertex="1">
          <mxGeometry y="120" width="180" height="30" as="geometry" />
        </mxCell>
        <mxCell id="lfD9yJDUr12pzseTFkDa-91" value="" style="shape=partialRectangle;connectable=0;top=0;left=0;bottom=0;right=0;editable=1;overflow=hidden;whiteSpace=wrap;html=1;" parent="lfD9yJDUr12pzseTFkDa-90" vertex="1">
          <mxGeometry width="30" height="30" as="geometry">
            <mxRectangle width="30" height="30" as="alternateBounds" />
          </mxGeometry>
        </mxCell>
        <mxCell id="lfD9yJDUr12pzseTFkDa-92" value="Fecha" style="shape=partialRectangle;connectable=0;top=0;left=0;bottom=0;right=0;align=left;spacingLeft=6;overflow=hidden;whiteSpace=wrap;html=1;" parent="lfD9yJDUr12pzseTFkDa-90" vertex="1">
          <mxGeometry x="30" width="150" height="30" as="geometry">
            <mxRectangle width="150" height="30" as="alternateBounds" />
          </mxGeometry>
        </mxCell>
        <mxCell id="lfD9yJDUr12pzseTFkDa-93" value="" style="shape=tableRow;horizontal=0;startSize=0;swimlaneHead=0;swimlaneBody=0;collapsible=0;dropTarget=0;points=[[0,0.5],[1,0.5]];portConstraint=eastwest;top=0;left=0;right=0;bottom=0;" parent="lfD9yJDUr12pzseTFkDa-80" vertex="1">
          <mxGeometry y="150" width="180" height="30" as="geometry" />
        </mxCell>
        <mxCell id="lfD9yJDUr12pzseTFkDa-94" value="" style="shape=partialRectangle;connectable=0;top=0;left=0;bottom=0;right=0;editable=1;overflow=hidden;whiteSpace=wrap;html=1;" parent="lfD9yJDUr12pzseTFkDa-93" vertex="1">
          <mxGeometry width="30" height="30" as="geometry">
            <mxRectangle width="30" height="30" as="alternateBounds" />
          </mxGeometry>
        </mxCell>
        <mxCell id="lfD9yJDUr12pzseTFkDa-95" value="HoraInicio" style="shape=partialRectangle;connectable=0;top=0;left=0;bottom=0;right=0;align=left;spacingLeft=6;overflow=hidden;whiteSpace=wrap;html=1;" parent="lfD9yJDUr12pzseTFkDa-93" vertex="1">
          <mxGeometry x="30" width="150" height="30" as="geometry">
            <mxRectangle width="150" height="30" as="alternateBounds" />
          </mxGeometry>
        </mxCell>
        <mxCell id="lfD9yJDUr12pzseTFkDa-96" value="" style="shape=tableRow;horizontal=0;startSize=0;swimlaneHead=0;swimlaneBody=0;collapsible=0;dropTarget=0;points=[[0,0.5],[1,0.5]];portConstraint=eastwest;top=0;left=0;right=0;bottom=0;" parent="lfD9yJDUr12pzseTFkDa-80" vertex="1">
          <mxGeometry y="180" width="180" height="30" as="geometry" />
        </mxCell>
        <mxCell id="lfD9yJDUr12pzseTFkDa-97" value="" style="shape=partialRectangle;connectable=0;top=0;left=0;bottom=0;right=0;editable=1;overflow=hidden;whiteSpace=wrap;html=1;" parent="lfD9yJDUr12pzseTFkDa-96" vertex="1">
          <mxGeometry width="30" height="30" as="geometry">
            <mxRectangle width="30" height="30" as="alternateBounds" />
          </mxGeometry>
        </mxCell>
        <mxCell id="lfD9yJDUr12pzseTFkDa-98" value="HoraFinal" style="shape=partialRectangle;connectable=0;top=0;left=0;bottom=0;right=0;align=left;spacingLeft=6;overflow=hidden;whiteSpace=wrap;html=1;" parent="lfD9yJDUr12pzseTFkDa-96" vertex="1">
          <mxGeometry x="30" width="150" height="30" as="geometry">
            <mxRectangle width="150" height="30" as="alternateBounds" />
          </mxGeometry>
        </mxCell>
        <mxCell id="lfD9yJDUr12pzseTFkDa-99" value="" style="shape=tableRow;horizontal=0;startSize=0;swimlaneHead=0;swimlaneBody=0;collapsible=0;dropTarget=0;points=[[0,0.5],[1,0.5]];portConstraint=eastwest;top=0;left=0;right=0;bottom=0;" parent="lfD9yJDUr12pzseTFkDa-80" vertex="1">
          <mxGeometry y="210" width="180" height="30" as="geometry" />
        </mxCell>
        <mxCell id="lfD9yJDUr12pzseTFkDa-100" value="" style="shape=partialRectangle;connectable=0;top=0;left=0;bottom=0;right=0;editable=1;overflow=hidden;whiteSpace=wrap;html=1;" parent="lfD9yJDUr12pzseTFkDa-99" vertex="1">
          <mxGeometry width="30" height="30" as="geometry">
            <mxRectangle width="30" height="30" as="alternateBounds" />
          </mxGeometry>
        </mxCell>
        <mxCell id="lfD9yJDUr12pzseTFkDa-101" value="Diagnostico" style="shape=partialRectangle;connectable=0;top=0;left=0;bottom=0;right=0;align=left;spacingLeft=6;overflow=hidden;whiteSpace=wrap;html=1;" parent="lfD9yJDUr12pzseTFkDa-99" vertex="1">
          <mxGeometry x="30" width="150" height="30" as="geometry">
            <mxRectangle width="150" height="30" as="alternateBounds" />
          </mxGeometry>
        </mxCell>
        <mxCell id="lfD9yJDUr12pzseTFkDa-102" value="" style="shape=tableRow;horizontal=0;startSize=0;swimlaneHead=0;swimlaneBody=0;collapsible=0;dropTarget=0;points=[[0,0.5],[1,0.5]];portConstraint=eastwest;top=0;left=0;right=0;bottom=0;" parent="lfD9yJDUr12pzseTFkDa-80" vertex="1">
          <mxGeometry y="240" width="180" height="30" as="geometry" />
        </mxCell>
        <mxCell id="lfD9yJDUr12pzseTFkDa-103" value="" style="shape=partialRectangle;connectable=0;top=0;left=0;bottom=0;right=0;editable=1;overflow=hidden;whiteSpace=wrap;html=1;" parent="lfD9yJDUr12pzseTFkDa-102" vertex="1">
          <mxGeometry width="30" height="30" as="geometry">
            <mxRectangle width="30" height="30" as="alternateBounds" />
          </mxGeometry>
        </mxCell>
        <mxCell id="lfD9yJDUr12pzseTFkDa-104" value="Costo" style="shape=partialRectangle;connectable=0;top=0;left=0;bottom=0;right=0;align=left;spacingLeft=6;overflow=hidden;whiteSpace=wrap;html=1;" parent="lfD9yJDUr12pzseTFkDa-102" vertex="1">
          <mxGeometry x="30" width="150" height="30" as="geometry">
            <mxRectangle width="150" height="30" as="alternateBounds" />
          </mxGeometry>
        </mxCell>
        <mxCell id="lfD9yJDUr12pzseTFkDa-105" value="Tratamiento" style="shape=table;startSize=30;container=1;collapsible=1;childLayout=tableLayout;fixedRows=1;rowLines=0;fontStyle=1;align=center;resizeLast=1;html=1;fillColor=#f8cecc;strokeColor=#b85450;" parent="1" vertex="1">
          <mxGeometry x="660" y="485" width="180" height="180" as="geometry" />
        </mxCell>
        <mxCell id="lfD9yJDUr12pzseTFkDa-106" value="" style="shape=tableRow;horizontal=0;startSize=0;swimlaneHead=0;swimlaneBody=0;collapsible=0;dropTarget=0;points=[[0,0.5],[1,0.5]];portConstraint=eastwest;top=0;left=0;right=0;bottom=1;" parent="lfD9yJDUr12pzseTFkDa-105" vertex="1">
          <mxGeometry y="30" width="180" height="30" as="geometry" />
        </mxCell>
        <mxCell id="lfD9yJDUr12pzseTFkDa-107" value="PK" style="shape=partialRectangle;connectable=0;top=0;left=0;bottom=0;right=0;fontStyle=1;overflow=hidden;whiteSpace=wrap;html=1;" parent="lfD9yJDUr12pzseTFkDa-106" vertex="1">
          <mxGeometry width="30" height="30" as="geometry">
            <mxRectangle width="30" height="30" as="alternateBounds" />
          </mxGeometry>
        </mxCell>
        <mxCell id="lfD9yJDUr12pzseTFkDa-108" value="Clave" style="shape=partialRectangle;connectable=0;top=0;left=0;bottom=0;right=0;align=left;spacingLeft=6;fontStyle=5;overflow=hidden;whiteSpace=wrap;html=1;" parent="lfD9yJDUr12pzseTFkDa-106" vertex="1">
          <mxGeometry x="30" width="150" height="30" as="geometry">
            <mxRectangle width="150" height="30" as="alternateBounds" />
          </mxGeometry>
        </mxCell>
        <mxCell id="lfD9yJDUr12pzseTFkDa-109" value="" style="shape=tableRow;horizontal=0;startSize=0;swimlaneHead=0;swimlaneBody=0;collapsible=0;dropTarget=0;points=[[0,0.5],[1,0.5]];portConstraint=eastwest;top=0;left=0;right=0;bottom=0;" parent="lfD9yJDUr12pzseTFkDa-105" vertex="1">
          <mxGeometry y="60" width="180" height="30" as="geometry" />
        </mxCell>
        <mxCell id="lfD9yJDUr12pzseTFkDa-110" value="FK" style="shape=partialRectangle;connectable=0;top=0;left=0;bottom=0;right=0;editable=1;overflow=hidden;whiteSpace=wrap;html=1;" parent="lfD9yJDUr12pzseTFkDa-109" vertex="1">
          <mxGeometry width="30" height="30" as="geometry">
            <mxRectangle width="30" height="30" as="alternateBounds" />
          </mxGeometry>
        </mxCell>
        <mxCell id="lfD9yJDUr12pzseTFkDa-111" value="IdCita" style="shape=partialRectangle;connectable=0;top=0;left=0;bottom=0;right=0;align=left;spacingLeft=6;overflow=hidden;whiteSpace=wrap;html=1;" parent="lfD9yJDUr12pzseTFkDa-109" vertex="1">
          <mxGeometry x="30" width="150" height="30" as="geometry">
            <mxRectangle width="150" height="30" as="alternateBounds" />
          </mxGeometry>
        </mxCell>
        <mxCell id="lfD9yJDUr12pzseTFkDa-112" value="" style="shape=tableRow;horizontal=0;startSize=0;swimlaneHead=0;swimlaneBody=0;collapsible=0;dropTarget=0;points=[[0,0.5],[1,0.5]];portConstraint=eastwest;top=0;left=0;right=0;bottom=0;" parent="lfD9yJDUr12pzseTFkDa-105" vertex="1">
          <mxGeometry y="90" width="180" height="30" as="geometry" />
        </mxCell>
        <mxCell id="lfD9yJDUr12pzseTFkDa-113" value="" style="shape=partialRectangle;connectable=0;top=0;left=0;bottom=0;right=0;editable=1;overflow=hidden;whiteSpace=wrap;html=1;" parent="lfD9yJDUr12pzseTFkDa-112" vertex="1">
          <mxGeometry width="30" height="30" as="geometry">
            <mxRectangle width="30" height="30" as="alternateBounds" />
          </mxGeometry>
        </mxCell>
        <mxCell id="lfD9yJDUr12pzseTFkDa-114" value="Diagnostico" style="shape=partialRectangle;connectable=0;top=0;left=0;bottom=0;right=0;align=left;spacingLeft=6;overflow=hidden;whiteSpace=wrap;html=1;" parent="lfD9yJDUr12pzseTFkDa-112" vertex="1">
          <mxGeometry x="30" width="150" height="30" as="geometry">
            <mxRectangle width="150" height="30" as="alternateBounds" />
          </mxGeometry>
        </mxCell>
        <mxCell id="lfD9yJDUr12pzseTFkDa-115" value="" style="shape=tableRow;horizontal=0;startSize=0;swimlaneHead=0;swimlaneBody=0;collapsible=0;dropTarget=0;points=[[0,0.5],[1,0.5]];portConstraint=eastwest;top=0;left=0;right=0;bottom=0;" parent="lfD9yJDUr12pzseTFkDa-105" vertex="1">
          <mxGeometry y="120" width="180" height="30" as="geometry" />
        </mxCell>
        <mxCell id="lfD9yJDUr12pzseTFkDa-116" value="" style="shape=partialRectangle;connectable=0;top=0;left=0;bottom=0;right=0;editable=1;overflow=hidden;whiteSpace=wrap;html=1;" parent="lfD9yJDUr12pzseTFkDa-115" vertex="1">
          <mxGeometry width="30" height="30" as="geometry">
            <mxRectangle width="30" height="30" as="alternateBounds" />
          </mxGeometry>
        </mxCell>
        <mxCell id="lfD9yJDUr12pzseTFkDa-117" value="Duracion" style="shape=partialRectangle;connectable=0;top=0;left=0;bottom=0;right=0;align=left;spacingLeft=6;overflow=hidden;whiteSpace=wrap;html=1;" parent="lfD9yJDUr12pzseTFkDa-115" vertex="1">
          <mxGeometry x="30" width="150" height="30" as="geometry">
            <mxRectangle width="150" height="30" as="alternateBounds" />
          </mxGeometry>
        </mxCell>
        <mxCell id="lfD9yJDUr12pzseTFkDa-118" value="" style="shape=tableRow;horizontal=0;startSize=0;swimlaneHead=0;swimlaneBody=0;collapsible=0;dropTarget=0;points=[[0,0.5],[1,0.5]];portConstraint=eastwest;top=0;left=0;right=0;bottom=0;" parent="lfD9yJDUr12pzseTFkDa-105" vertex="1">
          <mxGeometry y="150" width="180" height="30" as="geometry" />
        </mxCell>
        <mxCell id="lfD9yJDUr12pzseTFkDa-119" value="" style="shape=partialRectangle;connectable=0;top=0;left=0;bottom=0;right=0;editable=1;overflow=hidden;whiteSpace=wrap;html=1;" parent="lfD9yJDUr12pzseTFkDa-118" vertex="1">
          <mxGeometry width="30" height="30" as="geometry">
            <mxRectangle width="30" height="30" as="alternateBounds" />
          </mxGeometry>
        </mxCell>
        <mxCell id="lfD9yJDUr12pzseTFkDa-120" value="Medicamentos" style="shape=partialRectangle;connectable=0;top=0;left=0;bottom=0;right=0;align=left;spacingLeft=6;overflow=hidden;whiteSpace=wrap;html=1;" parent="lfD9yJDUr12pzseTFkDa-118" vertex="1">
          <mxGeometry x="30" width="150" height="30" as="geometry">
            <mxRectangle width="150" height="30" as="alternateBounds" />
          </mxGeometry>
        </mxCell>
        <mxCell id="lfD9yJDUr12pzseTFkDa-121" value="Doctor" style="shape=table;startSize=30;container=1;collapsible=1;childLayout=tableLayout;fixedRows=1;rowLines=0;fontStyle=1;align=center;resizeLast=1;html=1;fillColor=#f8cecc;strokeColor=#b85450;" parent="1" vertex="1">
          <mxGeometry x="660" y="80" width="180" height="360" as="geometry" />
        </mxCell>
        <mxCell id="lfD9yJDUr12pzseTFkDa-122" value="" style="shape=tableRow;horizontal=0;startSize=0;swimlaneHead=0;swimlaneBody=0;collapsible=0;dropTarget=0;points=[[0,0.5],[1,0.5]];portConstraint=eastwest;top=0;left=0;right=0;bottom=1;" parent="lfD9yJDUr12pzseTFkDa-121" vertex="1">
          <mxGeometry y="30" width="180" height="30" as="geometry" />
        </mxCell>
        <mxCell id="lfD9yJDUr12pzseTFkDa-123" value="PK" style="shape=partialRectangle;connectable=0;top=0;left=0;bottom=0;right=0;fontStyle=1;overflow=hidden;whiteSpace=wrap;html=1;" parent="lfD9yJDUr12pzseTFkDa-122" vertex="1">
          <mxGeometry width="30" height="30" as="geometry">
            <mxRectangle width="30" height="30" as="alternateBounds" />
          </mxGeometry>
        </mxCell>
        <mxCell id="lfD9yJDUr12pzseTFkDa-124" value="ClaveDoctor" style="shape=partialRectangle;connectable=0;top=0;left=0;bottom=0;right=0;align=left;spacingLeft=6;fontStyle=5;overflow=hidden;whiteSpace=wrap;html=1;" parent="lfD9yJDUr12pzseTFkDa-122" vertex="1">
          <mxGeometry x="30" width="150" height="30" as="geometry">
            <mxRectangle width="150" height="30" as="alternateBounds" />
          </mxGeometry>
        </mxCell>
        <mxCell id="lfD9yJDUr12pzseTFkDa-125" value="" style="shape=tableRow;horizontal=0;startSize=0;swimlaneHead=0;swimlaneBody=0;collapsible=0;dropTarget=0;points=[[0,0.5],[1,0.5]];portConstraint=eastwest;top=0;left=0;right=0;bottom=0;" parent="lfD9yJDUr12pzseTFkDa-121" vertex="1">
          <mxGeometry y="60" width="180" height="30" as="geometry" />
        </mxCell>
        <mxCell id="lfD9yJDUr12pzseTFkDa-126" value="" style="shape=partialRectangle;connectable=0;top=0;left=0;bottom=0;right=0;editable=1;overflow=hidden;whiteSpace=wrap;html=1;" parent="lfD9yJDUr12pzseTFkDa-125" vertex="1">
          <mxGeometry width="30" height="30" as="geometry">
            <mxRectangle width="30" height="30" as="alternateBounds" />
          </mxGeometry>
        </mxCell>
        <mxCell id="lfD9yJDUr12pzseTFkDa-127" value="Nombre" style="shape=partialRectangle;connectable=0;top=0;left=0;bottom=0;right=0;align=left;spacingLeft=6;overflow=hidden;whiteSpace=wrap;html=1;" parent="lfD9yJDUr12pzseTFkDa-125" vertex="1">
          <mxGeometry x="30" width="150" height="30" as="geometry">
            <mxRectangle width="150" height="30" as="alternateBounds" />
          </mxGeometry>
        </mxCell>
        <mxCell id="lfD9yJDUr12pzseTFkDa-128" value="" style="shape=tableRow;horizontal=0;startSize=0;swimlaneHead=0;swimlaneBody=0;collapsible=0;dropTarget=0;points=[[0,0.5],[1,0.5]];portConstraint=eastwest;top=0;left=0;right=0;bottom=0;" parent="lfD9yJDUr12pzseTFkDa-121" vertex="1">
          <mxGeometry y="90" width="180" height="30" as="geometry" />
        </mxCell>
        <mxCell id="lfD9yJDUr12pzseTFkDa-129" value="" style="shape=partialRectangle;connectable=0;top=0;left=0;bottom=0;right=0;editable=1;overflow=hidden;whiteSpace=wrap;html=1;" parent="lfD9yJDUr12pzseTFkDa-128" vertex="1">
          <mxGeometry width="30" height="30" as="geometry">
            <mxRectangle width="30" height="30" as="alternateBounds" />
          </mxGeometry>
        </mxCell>
        <mxCell id="lfD9yJDUr12pzseTFkDa-130" value="ApellidoPaterno" style="shape=partialRectangle;connectable=0;top=0;left=0;bottom=0;right=0;align=left;spacingLeft=6;overflow=hidden;whiteSpace=wrap;html=1;" parent="lfD9yJDUr12pzseTFkDa-128" vertex="1">
          <mxGeometry x="30" width="150" height="30" as="geometry">
            <mxRectangle width="150" height="30" as="alternateBounds" />
          </mxGeometry>
        </mxCell>
        <mxCell id="lfD9yJDUr12pzseTFkDa-131" value="" style="shape=tableRow;horizontal=0;startSize=0;swimlaneHead=0;swimlaneBody=0;collapsible=0;dropTarget=0;points=[[0,0.5],[1,0.5]];portConstraint=eastwest;top=0;left=0;right=0;bottom=0;" parent="lfD9yJDUr12pzseTFkDa-121" vertex="1">
          <mxGeometry y="120" width="180" height="30" as="geometry" />
        </mxCell>
        <mxCell id="lfD9yJDUr12pzseTFkDa-132" value="" style="shape=partialRectangle;connectable=0;top=0;left=0;bottom=0;right=0;editable=1;overflow=hidden;whiteSpace=wrap;html=1;" parent="lfD9yJDUr12pzseTFkDa-131" vertex="1">
          <mxGeometry width="30" height="30" as="geometry">
            <mxRectangle width="30" height="30" as="alternateBounds" />
          </mxGeometry>
        </mxCell>
        <mxCell id="lfD9yJDUr12pzseTFkDa-133" value="ApellidoMaterno" style="shape=partialRectangle;connectable=0;top=0;left=0;bottom=0;right=0;align=left;spacingLeft=6;overflow=hidden;whiteSpace=wrap;html=1;" parent="lfD9yJDUr12pzseTFkDa-131" vertex="1">
          <mxGeometry x="30" width="150" height="30" as="geometry">
            <mxRectangle width="150" height="30" as="alternateBounds" />
          </mxGeometry>
        </mxCell>
        <mxCell id="lfD9yJDUr12pzseTFkDa-134" value="" style="shape=tableRow;horizontal=0;startSize=0;swimlaneHead=0;swimlaneBody=0;collapsible=0;dropTarget=0;points=[[0,0.5],[1,0.5]];portConstraint=eastwest;top=0;left=0;right=0;bottom=0;" parent="lfD9yJDUr12pzseTFkDa-121" vertex="1">
          <mxGeometry y="150" width="180" height="30" as="geometry" />
        </mxCell>
        <mxCell id="lfD9yJDUr12pzseTFkDa-135" value="" style="shape=partialRectangle;connectable=0;top=0;left=0;bottom=0;right=0;editable=1;overflow=hidden;whiteSpace=wrap;html=1;" parent="lfD9yJDUr12pzseTFkDa-134" vertex="1">
          <mxGeometry width="30" height="30" as="geometry">
            <mxRectangle width="30" height="30" as="alternateBounds" />
          </mxGeometry>
        </mxCell>
        <mxCell id="lfD9yJDUr12pzseTFkDa-136" value="Telefono" style="shape=partialRectangle;connectable=0;top=0;left=0;bottom=0;right=0;align=left;spacingLeft=6;overflow=hidden;whiteSpace=wrap;html=1;" parent="lfD9yJDUr12pzseTFkDa-134" vertex="1">
          <mxGeometry x="30" width="150" height="30" as="geometry">
            <mxRectangle width="150" height="30" as="alternateBounds" />
          </mxGeometry>
        </mxCell>
        <mxCell id="lfD9yJDUr12pzseTFkDa-137" value="" style="shape=tableRow;horizontal=0;startSize=0;swimlaneHead=0;swimlaneBody=0;collapsible=0;dropTarget=0;points=[[0,0.5],[1,0.5]];portConstraint=eastwest;top=0;left=0;right=0;bottom=0;" parent="lfD9yJDUr12pzseTFkDa-121" vertex="1">
          <mxGeometry y="180" width="180" height="30" as="geometry" />
        </mxCell>
        <mxCell id="lfD9yJDUr12pzseTFkDa-138" value="" style="shape=partialRectangle;connectable=0;top=0;left=0;bottom=0;right=0;editable=1;overflow=hidden;whiteSpace=wrap;html=1;" parent="lfD9yJDUr12pzseTFkDa-137" vertex="1">
          <mxGeometry width="30" height="30" as="geometry">
            <mxRectangle width="30" height="30" as="alternateBounds" />
          </mxGeometry>
        </mxCell>
        <mxCell id="lfD9yJDUr12pzseTFkDa-139" value="Direccion" style="shape=partialRectangle;connectable=0;top=0;left=0;bottom=0;right=0;align=left;spacingLeft=6;overflow=hidden;whiteSpace=wrap;html=1;" parent="lfD9yJDUr12pzseTFkDa-137" vertex="1">
          <mxGeometry x="30" width="150" height="30" as="geometry">
            <mxRectangle width="150" height="30" as="alternateBounds" />
          </mxGeometry>
        </mxCell>
        <mxCell id="lfD9yJDUr12pzseTFkDa-140" value="" style="shape=tableRow;horizontal=0;startSize=0;swimlaneHead=0;swimlaneBody=0;collapsible=0;dropTarget=0;points=[[0,0.5],[1,0.5]];portConstraint=eastwest;top=0;left=0;right=0;bottom=0;" parent="lfD9yJDUr12pzseTFkDa-121" vertex="1">
          <mxGeometry y="210" width="180" height="30" as="geometry" />
        </mxCell>
        <mxCell id="lfD9yJDUr12pzseTFkDa-141" value="" style="shape=partialRectangle;connectable=0;top=0;left=0;bottom=0;right=0;editable=1;overflow=hidden;whiteSpace=wrap;html=1;" parent="lfD9yJDUr12pzseTFkDa-140" vertex="1">
          <mxGeometry width="30" height="30" as="geometry">
            <mxRectangle width="30" height="30" as="alternateBounds" />
          </mxGeometry>
        </mxCell>
        <mxCell id="lfD9yJDUr12pzseTFkDa-142" value="Email" style="shape=partialRectangle;connectable=0;top=0;left=0;bottom=0;right=0;align=left;spacingLeft=6;overflow=hidden;whiteSpace=wrap;html=1;" parent="lfD9yJDUr12pzseTFkDa-140" vertex="1">
          <mxGeometry x="30" width="150" height="30" as="geometry">
            <mxRectangle width="150" height="30" as="alternateBounds" />
          </mxGeometry>
        </mxCell>
        <mxCell id="lfD9yJDUr12pzseTFkDa-143" value="" style="shape=tableRow;horizontal=0;startSize=0;swimlaneHead=0;swimlaneBody=0;collapsible=0;dropTarget=0;points=[[0,0.5],[1,0.5]];portConstraint=eastwest;top=0;left=0;right=0;bottom=0;" parent="lfD9yJDUr12pzseTFkDa-121" vertex="1">
          <mxGeometry y="240" width="180" height="30" as="geometry" />
        </mxCell>
        <mxCell id="lfD9yJDUr12pzseTFkDa-144" value="" style="shape=partialRectangle;connectable=0;top=0;left=0;bottom=0;right=0;editable=1;overflow=hidden;whiteSpace=wrap;html=1;" parent="lfD9yJDUr12pzseTFkDa-143" vertex="1">
          <mxGeometry width="30" height="30" as="geometry">
            <mxRectangle width="30" height="30" as="alternateBounds" />
          </mxGeometry>
        </mxCell>
        <mxCell id="lfD9yJDUr12pzseTFkDa-145" value="FechaDeNacimiento" style="shape=partialRectangle;connectable=0;top=0;left=0;bottom=0;right=0;align=left;spacingLeft=6;overflow=hidden;whiteSpace=wrap;html=1;" parent="lfD9yJDUr12pzseTFkDa-143" vertex="1">
          <mxGeometry x="30" width="150" height="30" as="geometry">
            <mxRectangle width="150" height="30" as="alternateBounds" />
          </mxGeometry>
        </mxCell>
        <mxCell id="lfD9yJDUr12pzseTFkDa-146" value="" style="shape=tableRow;horizontal=0;startSize=0;swimlaneHead=0;swimlaneBody=0;collapsible=0;dropTarget=0;points=[[0,0.5],[1,0.5]];portConstraint=eastwest;top=0;left=0;right=0;bottom=0;" parent="lfD9yJDUr12pzseTFkDa-121" vertex="1">
          <mxGeometry y="270" width="180" height="30" as="geometry" />
        </mxCell>
        <mxCell id="lfD9yJDUr12pzseTFkDa-147" value="" style="shape=partialRectangle;connectable=0;top=0;left=0;bottom=0;right=0;editable=1;overflow=hidden;whiteSpace=wrap;html=1;" parent="lfD9yJDUr12pzseTFkDa-146" vertex="1">
          <mxGeometry width="30" height="30" as="geometry">
            <mxRectangle width="30" height="30" as="alternateBounds" />
          </mxGeometry>
        </mxCell>
        <mxCell id="lfD9yJDUr12pzseTFkDa-148" value="Horario" style="shape=partialRectangle;connectable=0;top=0;left=0;bottom=0;right=0;align=left;spacingLeft=6;overflow=hidden;whiteSpace=wrap;html=1;" parent="lfD9yJDUr12pzseTFkDa-146" vertex="1">
          <mxGeometry x="30" width="150" height="30" as="geometry">
            <mxRectangle width="150" height="30" as="alternateBounds" />
          </mxGeometry>
        </mxCell>
        <mxCell id="lfD9yJDUr12pzseTFkDa-149" value="" style="shape=tableRow;horizontal=0;startSize=0;swimlaneHead=0;swimlaneBody=0;collapsible=0;dropTarget=0;points=[[0,0.5],[1,0.5]];portConstraint=eastwest;top=0;left=0;right=0;bottom=0;" parent="lfD9yJDUr12pzseTFkDa-121" vertex="1">
          <mxGeometry y="300" width="180" height="30" as="geometry" />
        </mxCell>
        <mxCell id="lfD9yJDUr12pzseTFkDa-150" value="" style="shape=partialRectangle;connectable=0;top=0;left=0;bottom=0;right=0;editable=1;overflow=hidden;whiteSpace=wrap;html=1;" parent="lfD9yJDUr12pzseTFkDa-149" vertex="1">
          <mxGeometry width="30" height="30" as="geometry">
            <mxRectangle width="30" height="30" as="alternateBounds" />
          </mxGeometry>
        </mxCell>
        <mxCell id="lfD9yJDUr12pzseTFkDa-151" value="Especialidad" style="shape=partialRectangle;connectable=0;top=0;left=0;bottom=0;right=0;align=left;spacingLeft=6;overflow=hidden;whiteSpace=wrap;html=1;" parent="lfD9yJDUr12pzseTFkDa-149" vertex="1">
          <mxGeometry x="30" width="150" height="30" as="geometry">
            <mxRectangle width="150" height="30" as="alternateBounds" />
          </mxGeometry>
        </mxCell>
        <mxCell id="lfD9yJDUr12pzseTFkDa-152" value="" style="shape=tableRow;horizontal=0;startSize=0;swimlaneHead=0;swimlaneBody=0;collapsible=0;dropTarget=0;points=[[0,0.5],[1,0.5]];portConstraint=eastwest;top=0;left=0;right=0;bottom=0;" parent="lfD9yJDUr12pzseTFkDa-121" vertex="1">
          <mxGeometry y="330" width="180" height="30" as="geometry" />
        </mxCell>
        <mxCell id="lfD9yJDUr12pzseTFkDa-153" value="" style="shape=partialRectangle;connectable=0;top=0;left=0;bottom=0;right=0;editable=1;overflow=hidden;whiteSpace=wrap;html=1;" parent="lfD9yJDUr12pzseTFkDa-152" vertex="1">
          <mxGeometry width="30" height="30" as="geometry">
            <mxRectangle width="30" height="30" as="alternateBounds" />
          </mxGeometry>
        </mxCell>
        <mxCell id="lfD9yJDUr12pzseTFkDa-154" value="Cedula" style="shape=partialRectangle;connectable=0;top=0;left=0;bottom=0;right=0;align=left;spacingLeft=6;overflow=hidden;whiteSpace=wrap;html=1;" parent="lfD9yJDUr12pzseTFkDa-152" vertex="1">
          <mxGeometry x="30" width="150" height="30" as="geometry">
            <mxRectangle width="150" height="30" as="alternateBounds" />
          </mxGeometry>
        </mxCell>
        <mxCell id="lfD9yJDUr12pzseTFkDa-155" value="Paciente" style="shape=table;startSize=30;container=1;collapsible=1;childLayout=tableLayout;fixedRows=1;rowLines=0;fontStyle=1;align=center;resizeLast=1;html=1;fillColor=#f8cecc;strokeColor=#b85450;" parent="1" vertex="1">
          <mxGeometry x="50" y="80" width="180" height="270" as="geometry" />
        </mxCell>
        <mxCell id="lfD9yJDUr12pzseTFkDa-156" value="" style="shape=tableRow;horizontal=0;startSize=0;swimlaneHead=0;swimlaneBody=0;fillColor=none;collapsible=0;dropTarget=0;points=[[0,0.5],[1,0.5]];portConstraint=eastwest;top=0;left=0;right=0;bottom=1;" parent="lfD9yJDUr12pzseTFkDa-155" vertex="1">
          <mxGeometry y="30" width="180" height="30" as="geometry" />
        </mxCell>
        <mxCell id="lfD9yJDUr12pzseTFkDa-157" value="PK" style="shape=partialRectangle;connectable=0;fillColor=none;top=0;left=0;bottom=0;right=0;fontStyle=1;overflow=hidden;whiteSpace=wrap;html=1;" parent="lfD9yJDUr12pzseTFkDa-156" vertex="1">
          <mxGeometry width="30" height="30" as="geometry">
            <mxRectangle width="30" height="30" as="alternateBounds" />
          </mxGeometry>
        </mxCell>
        <mxCell id="lfD9yJDUr12pzseTFkDa-158" value="ClavePaciente" style="shape=partialRectangle;connectable=0;top=0;left=0;bottom=0;right=0;align=left;spacingLeft=6;fontStyle=5;overflow=hidden;whiteSpace=wrap;html=1;" parent="lfD9yJDUr12pzseTFkDa-156" vertex="1">
          <mxGeometry x="30" width="150" height="30" as="geometry">
            <mxRectangle width="150" height="30" as="alternateBounds" />
          </mxGeometry>
        </mxCell>
        <mxCell id="lfD9yJDUr12pzseTFkDa-159" value="" style="shape=tableRow;horizontal=0;startSize=0;swimlaneHead=0;swimlaneBody=0;fillColor=none;collapsible=0;dropTarget=0;points=[[0,0.5],[1,0.5]];portConstraint=eastwest;top=0;left=0;right=0;bottom=0;" parent="lfD9yJDUr12pzseTFkDa-155" vertex="1">
          <mxGeometry y="60" width="180" height="30" as="geometry" />
        </mxCell>
        <mxCell id="lfD9yJDUr12pzseTFkDa-160" value="" style="shape=partialRectangle;connectable=0;fillColor=none;top=0;left=0;bottom=0;right=0;editable=1;overflow=hidden;whiteSpace=wrap;html=1;" parent="lfD9yJDUr12pzseTFkDa-159" vertex="1">
          <mxGeometry width="30" height="30" as="geometry">
            <mxRectangle width="30" height="30" as="alternateBounds" />
          </mxGeometry>
        </mxCell>
        <mxCell id="lfD9yJDUr12pzseTFkDa-161" value="Nombre" style="shape=partialRectangle;connectable=0;top=0;left=0;bottom=0;right=0;align=left;spacingLeft=6;overflow=hidden;whiteSpace=wrap;html=1;" parent="lfD9yJDUr12pzseTFkDa-159" vertex="1">
          <mxGeometry x="30" width="150" height="30" as="geometry">
            <mxRectangle width="150" height="30" as="alternateBounds" />
          </mxGeometry>
        </mxCell>
        <mxCell id="lfD9yJDUr12pzseTFkDa-162" value="" style="shape=tableRow;horizontal=0;startSize=0;swimlaneHead=0;swimlaneBody=0;fillColor=none;collapsible=0;dropTarget=0;points=[[0,0.5],[1,0.5]];portConstraint=eastwest;top=0;left=0;right=0;bottom=0;" parent="lfD9yJDUr12pzseTFkDa-155" vertex="1">
          <mxGeometry y="90" width="180" height="30" as="geometry" />
        </mxCell>
        <mxCell id="lfD9yJDUr12pzseTFkDa-163" value="" style="shape=partialRectangle;connectable=0;fillColor=none;top=0;left=0;bottom=0;right=0;editable=1;overflow=hidden;whiteSpace=wrap;html=1;" parent="lfD9yJDUr12pzseTFkDa-162" vertex="1">
          <mxGeometry width="30" height="30" as="geometry">
            <mxRectangle width="30" height="30" as="alternateBounds" />
          </mxGeometry>
        </mxCell>
        <mxCell id="lfD9yJDUr12pzseTFkDa-164" value="ApellidoPaterno" style="shape=partialRectangle;connectable=0;top=0;left=0;bottom=0;right=0;align=left;spacingLeft=6;overflow=hidden;whiteSpace=wrap;html=1;" parent="lfD9yJDUr12pzseTFkDa-162" vertex="1">
          <mxGeometry x="30" width="150" height="30" as="geometry">
            <mxRectangle width="150" height="30" as="alternateBounds" />
          </mxGeometry>
        </mxCell>
        <mxCell id="lfD9yJDUr12pzseTFkDa-165" value="" style="shape=tableRow;horizontal=0;startSize=0;swimlaneHead=0;swimlaneBody=0;fillColor=none;collapsible=0;dropTarget=0;points=[[0,0.5],[1,0.5]];portConstraint=eastwest;top=0;left=0;right=0;bottom=0;" parent="lfD9yJDUr12pzseTFkDa-155" vertex="1">
          <mxGeometry y="120" width="180" height="30" as="geometry" />
        </mxCell>
        <mxCell id="lfD9yJDUr12pzseTFkDa-166" value="" style="shape=partialRectangle;connectable=0;fillColor=none;top=0;left=0;bottom=0;right=0;editable=1;overflow=hidden;whiteSpace=wrap;html=1;" parent="lfD9yJDUr12pzseTFkDa-165" vertex="1">
          <mxGeometry width="30" height="30" as="geometry">
            <mxRectangle width="30" height="30" as="alternateBounds" />
          </mxGeometry>
        </mxCell>
        <mxCell id="lfD9yJDUr12pzseTFkDa-167" value="ApellidoMaterno" style="shape=partialRectangle;connectable=0;top=0;left=0;bottom=0;right=0;align=left;spacingLeft=6;overflow=hidden;whiteSpace=wrap;html=1;" parent="lfD9yJDUr12pzseTFkDa-165" vertex="1">
          <mxGeometry x="30" width="150" height="30" as="geometry">
            <mxRectangle width="150" height="30" as="alternateBounds" />
          </mxGeometry>
        </mxCell>
        <mxCell id="lfD9yJDUr12pzseTFkDa-168" value="" style="shape=tableRow;horizontal=0;startSize=0;swimlaneHead=0;swimlaneBody=0;fillColor=none;collapsible=0;dropTarget=0;points=[[0,0.5],[1,0.5]];portConstraint=eastwest;top=0;left=0;right=0;bottom=0;" parent="lfD9yJDUr12pzseTFkDa-155" vertex="1">
          <mxGeometry y="150" width="180" height="30" as="geometry" />
        </mxCell>
        <mxCell id="lfD9yJDUr12pzseTFkDa-169" value="" style="shape=partialRectangle;connectable=0;fillColor=none;top=0;left=0;bottom=0;right=0;editable=1;overflow=hidden;whiteSpace=wrap;html=1;" parent="lfD9yJDUr12pzseTFkDa-168" vertex="1">
          <mxGeometry width="30" height="30" as="geometry">
            <mxRectangle width="30" height="30" as="alternateBounds" />
          </mxGeometry>
        </mxCell>
        <mxCell id="lfD9yJDUr12pzseTFkDa-170" value="Telefono" style="shape=partialRectangle;connectable=0;top=0;left=0;bottom=0;right=0;align=left;spacingLeft=6;overflow=hidden;whiteSpace=wrap;html=1;" parent="lfD9yJDUr12pzseTFkDa-168" vertex="1">
          <mxGeometry x="30" width="150" height="30" as="geometry">
            <mxRectangle width="150" height="30" as="alternateBounds" />
          </mxGeometry>
        </mxCell>
        <mxCell id="lfD9yJDUr12pzseTFkDa-171" value="" style="shape=tableRow;horizontal=0;startSize=0;swimlaneHead=0;swimlaneBody=0;fillColor=none;collapsible=0;dropTarget=0;points=[[0,0.5],[1,0.5]];portConstraint=eastwest;top=0;left=0;right=0;bottom=0;" parent="lfD9yJDUr12pzseTFkDa-155" vertex="1">
          <mxGeometry y="180" width="180" height="30" as="geometry" />
        </mxCell>
        <mxCell id="lfD9yJDUr12pzseTFkDa-172" value="" style="shape=partialRectangle;connectable=0;fillColor=none;top=0;left=0;bottom=0;right=0;editable=1;overflow=hidden;whiteSpace=wrap;html=1;" parent="lfD9yJDUr12pzseTFkDa-171" vertex="1">
          <mxGeometry width="30" height="30" as="geometry">
            <mxRectangle width="30" height="30" as="alternateBounds" />
          </mxGeometry>
        </mxCell>
        <mxCell id="lfD9yJDUr12pzseTFkDa-173" value="Direccion" style="shape=partialRectangle;connectable=0;top=0;left=0;bottom=0;right=0;align=left;spacingLeft=6;overflow=hidden;whiteSpace=wrap;html=1;" parent="lfD9yJDUr12pzseTFkDa-171" vertex="1">
          <mxGeometry x="30" width="150" height="30" as="geometry">
            <mxRectangle width="150" height="30" as="alternateBounds" />
          </mxGeometry>
        </mxCell>
        <mxCell id="lfD9yJDUr12pzseTFkDa-174" value="" style="shape=tableRow;horizontal=0;startSize=0;swimlaneHead=0;swimlaneBody=0;fillColor=none;collapsible=0;dropTarget=0;points=[[0,0.5],[1,0.5]];portConstraint=eastwest;top=0;left=0;right=0;bottom=0;" parent="lfD9yJDUr12pzseTFkDa-155" vertex="1">
          <mxGeometry y="210" width="180" height="30" as="geometry" />
        </mxCell>
        <mxCell id="lfD9yJDUr12pzseTFkDa-175" value="" style="shape=partialRectangle;connectable=0;fillColor=none;top=0;left=0;bottom=0;right=0;editable=1;overflow=hidden;whiteSpace=wrap;html=1;" parent="lfD9yJDUr12pzseTFkDa-174" vertex="1">
          <mxGeometry width="30" height="30" as="geometry">
            <mxRectangle width="30" height="30" as="alternateBounds" />
          </mxGeometry>
        </mxCell>
        <mxCell id="lfD9yJDUr12pzseTFkDa-176" value="Email" style="shape=partialRectangle;connectable=0;top=0;left=0;bottom=0;right=0;align=left;spacingLeft=6;overflow=hidden;whiteSpace=wrap;html=1;" parent="lfD9yJDUr12pzseTFkDa-174" vertex="1">
          <mxGeometry x="30" width="150" height="30" as="geometry">
            <mxRectangle width="150" height="30" as="alternateBounds" />
          </mxGeometry>
        </mxCell>
        <mxCell id="lfD9yJDUr12pzseTFkDa-177" value="" style="shape=tableRow;horizontal=0;startSize=0;swimlaneHead=0;swimlaneBody=0;fillColor=none;collapsible=0;dropTarget=0;points=[[0,0.5],[1,0.5]];portConstraint=eastwest;top=0;left=0;right=0;bottom=0;" parent="lfD9yJDUr12pzseTFkDa-155" vertex="1">
          <mxGeometry y="240" width="180" height="30" as="geometry" />
        </mxCell>
        <mxCell id="lfD9yJDUr12pzseTFkDa-178" value="" style="shape=partialRectangle;connectable=0;fillColor=none;top=0;left=0;bottom=0;right=0;editable=1;overflow=hidden;whiteSpace=wrap;html=1;" parent="lfD9yJDUr12pzseTFkDa-177" vertex="1">
          <mxGeometry width="30" height="30" as="geometry">
            <mxRectangle width="30" height="30" as="alternateBounds" />
          </mxGeometry>
        </mxCell>
        <mxCell id="lfD9yJDUr12pzseTFkDa-179" value="FechaDeNacimiento" style="shape=partialRectangle;connectable=0;top=0;left=0;bottom=0;right=0;align=left;spacingLeft=6;overflow=hidden;whiteSpace=wrap;html=1;" parent="lfD9yJDUr12pzseTFkDa-177" vertex="1">
          <mxGeometry x="30" width="150" height="30" as="geometry">
            <mxRectangle width="150" height="30" as="alternateBounds" />
          </mxGeometry>
        </mxCell>
        <mxCell id="lfD9yJDUr12pzseTFkDa-193" value="Agenda" style="rhombus;whiteSpace=wrap;html=1;fillColor=#e1d5e7;strokeColor=#9673a6;" parent="1" vertex="1">
          <mxGeometry x="250" y="160" width="140" height="80" as="geometry" />
        </mxCell>
        <mxCell id="lfD9yJDUr12pzseTFkDa-228" value="Agenda" style="rhombus;whiteSpace=wrap;html=1;fillColor=#e1d5e7;strokeColor=#9673a6;" parent="1" vertex="1">
          <mxGeometry x="460" y="160" width="140" height="80" as="geometry" />
        </mxCell>
        <mxCell id="lfD9yJDUr12pzseTFkDa-229" style="edgeStyle=orthogonalEdgeStyle;rounded=0;orthogonalLoop=1;jettySize=auto;html=1;exitX=1;exitY=0.5;exitDx=0;exitDy=0;" parent="1" source="lfD9yJDUr12pzseTFkDa-156" target="lfD9yJDUr12pzseTFkDa-193" edge="1">
          <mxGeometry relative="1" as="geometry" />
        </mxCell>
        <mxCell id="lfD9yJDUr12pzseTFkDa-230" style="edgeStyle=orthogonalEdgeStyle;rounded=0;orthogonalLoop=1;jettySize=auto;html=1;exitX=0;exitY=0.5;exitDx=0;exitDy=0;" parent="1" source="lfD9yJDUr12pzseTFkDa-122" target="lfD9yJDUr12pzseTFkDa-228" edge="1">
          <mxGeometry relative="1" as="geometry" />
        </mxCell>
        <mxCell id="lfD9yJDUr12pzseTFkDa-233" value="Genera&lt;span style=&quot;color: rgba(0, 0, 0, 0); font-family: monospace; font-size: 0px; text-align: start; text-wrap-mode: nowrap;&quot;&gt;%3CmxGraphModel%3E%3Croot%3E%3CmxCell%20id%3D%220%22%2F%3E%3CmxCell%20id%3D%221%22%20parent%3D%220%22%2F%3E%3CmxCell%20id%3D%222%22%20value%3D%22Agenda%22%20style%3D%22rhombus%3BwhiteSpace%3Dwrap%3Bhtml%3D1%3B%22%20vertex%3D%221%22%20parent%3D%221%22%3E%3CmxGeometry%20x%3D%22460%22%20y%3D%22160%22%20width%3D%22140%22%20height%3D%2280%22%20as%3D%22geometry%22%2F%3E%3C%2FmxCell%3E%3C%2Froot%3E%3C%2FmxGraphModel%3E&lt;/span&gt;" style="rhombus;whiteSpace=wrap;html=1;fillColor=#e1d5e7;strokeColor=#9673a6;" parent="1" vertex="1">
          <mxGeometry x="470" y="585" width="140" height="80" as="geometry" />
        </mxCell>
        <mxCell id="lfD9yJDUr12pzseTFkDa-234" value="Registra" style="rhombus;whiteSpace=wrap;html=1;fillColor=#e1d5e7;strokeColor=#9673a6;" parent="1" vertex="1">
          <mxGeometry x="80" y="390" width="140" height="80" as="geometry" />
        </mxCell>
        <mxCell id="lfD9yJDUr12pzseTFkDa-235" style="edgeStyle=orthogonalEdgeStyle;rounded=0;orthogonalLoop=1;jettySize=auto;html=1;exitX=1;exitY=0.5;exitDx=0;exitDy=0;entryX=0.5;entryY=0;entryDx=0;entryDy=0;" parent="1" source="lfD9yJDUr12pzseTFkDa-87" target="lfD9yJDUr12pzseTFkDa-233" edge="1">
          <mxGeometry relative="1" as="geometry" />
        </mxCell>
        <mxCell id="lfD9yJDUr12pzseTFkDa-237" style="edgeStyle=orthogonalEdgeStyle;rounded=0;orthogonalLoop=1;jettySize=auto;html=1;exitX=0;exitY=0.5;exitDx=0;exitDy=0;entryX=1;entryY=0.5;entryDx=0;entryDy=0;" parent="1" source="lfD9yJDUr12pzseTFkDa-109" target="lfD9yJDUr12pzseTFkDa-233" edge="1">
          <mxGeometry relative="1" as="geometry" />
        </mxCell>
        <mxCell id="lfD9yJDUr12pzseTFkDa-238" style="edgeStyle=orthogonalEdgeStyle;rounded=0;orthogonalLoop=1;jettySize=auto;html=1;exitX=0;exitY=0.5;exitDx=0;exitDy=0;" parent="1" source="lfD9yJDUr12pzseTFkDa-68" target="lfD9yJDUr12pzseTFkDa-234" edge="1">
          <mxGeometry relative="1" as="geometry" />
        </mxCell>
        <mxCell id="lfD9yJDUr12pzseTFkDa-239" style="edgeStyle=orthogonalEdgeStyle;rounded=0;orthogonalLoop=1;jettySize=auto;html=1;exitX=0;exitY=0.5;exitDx=0;exitDy=0;entryX=0;entryY=0.5;entryDx=0;entryDy=0;" parent="1" source="lfD9yJDUr12pzseTFkDa-156" target="lfD9yJDUr12pzseTFkDa-234" edge="1">
          <mxGeometry relative="1" as="geometry" />
        </mxCell>
        <mxCell id="lfD9yJDUr12pzseTFkDa-240" style="edgeStyle=orthogonalEdgeStyle;rounded=0;orthogonalLoop=1;jettySize=auto;html=1;exitX=0;exitY=0.5;exitDx=0;exitDy=0;" parent="1" source="lfD9yJDUr12pzseTFkDa-81" target="lfD9yJDUr12pzseTFkDa-193" edge="1">
          <mxGeometry relative="1" as="geometry" />
        </mxCell>
        <mxCell id="lfD9yJDUr12pzseTFkDa-241" style="edgeStyle=orthogonalEdgeStyle;rounded=0;orthogonalLoop=1;jettySize=auto;html=1;exitX=1;exitY=0.5;exitDx=0;exitDy=0;entryX=0.5;entryY=1;entryDx=0;entryDy=0;" parent="1" source="lfD9yJDUr12pzseTFkDa-248" target="lfD9yJDUr12pzseTFkDa-228" edge="1">
          <mxGeometry relative="1" as="geometry" />
        </mxCell>
        <mxCell id="lfD9yJDUr12pzseTFkDa-242" value="1" style="text;align=left;verticalAlign=middle;spacingLeft=4;spacingRight=4;overflow=hidden;points=[[0,0.5],[1,0.5]];portConstraint=eastwest;rotatable=0;whiteSpace=wrap;html=1;" parent="1" vertex="1">
          <mxGeometry x="230" y="100" width="80" height="30" as="geometry" />
        </mxCell>
        <mxCell id="lfD9yJDUr12pzseTFkDa-243" value="1" style="text;align=left;verticalAlign=middle;spacingLeft=4;spacingRight=4;overflow=hidden;points=[[0,0.5],[1,0.5]];portConstraint=eastwest;rotatable=0;whiteSpace=wrap;html=1;" parent="1" vertex="1">
          <mxGeometry x="640" y="100" width="80" height="30" as="geometry" />
        </mxCell>
        <mxCell id="lfD9yJDUr12pzseTFkDa-244" value="1" style="text;align=left;verticalAlign=middle;spacingLeft=4;spacingRight=4;overflow=hidden;points=[[0,0.5],[1,0.5]];portConstraint=eastwest;rotatable=0;whiteSpace=wrap;html=1;" parent="1" vertex="1">
          <mxGeometry x="504" y="380" width="80" height="30" as="geometry" />
        </mxCell>
        <mxCell id="lfD9yJDUr12pzseTFkDa-245" value="1" style="text;align=left;verticalAlign=middle;spacingLeft=4;spacingRight=4;overflow=hidden;points=[[0,0.5],[1,0.5]];portConstraint=eastwest;rotatable=0;whiteSpace=wrap;html=1;" parent="1" vertex="1">
          <mxGeometry x="150" y="470" width="80" height="30" as="geometry" />
        </mxCell>
        <mxCell id="lfD9yJDUr12pzseTFkDa-246" value="1" style="text;strokeColor=none;fillColor=none;align=left;verticalAlign=middle;spacingLeft=4;spacingRight=4;overflow=hidden;points=[[0,0.5],[1,0.5]];portConstraint=eastwest;rotatable=0;whiteSpace=wrap;html=1;" parent="1" vertex="1">
          <mxGeometry x="30" y="100" width="80" height="30" as="geometry" />
        </mxCell>
        <mxCell id="lfD9yJDUr12pzseTFkDa-247" value="N" style="text;align=left;verticalAlign=middle;spacingLeft=4;spacingRight=4;overflow=hidden;points=[[0,0.5],[1,0.5]];portConstraint=eastwest;rotatable=0;whiteSpace=wrap;html=1;" parent="1" vertex="1">
          <mxGeometry x="640" y="530" width="80" height="30" as="geometry" />
        </mxCell>
        <mxCell id="lfD9yJDUr12pzseTFkDa-249" value="" style="edgeStyle=orthogonalEdgeStyle;rounded=0;orthogonalLoop=1;jettySize=auto;html=1;exitX=1;exitY=0.5;exitDx=0;exitDy=0;entryX=0.5;entryY=1;entryDx=0;entryDy=0;" parent="1" source="lfD9yJDUr12pzseTFkDa-84" target="lfD9yJDUr12pzseTFkDa-248" edge="1">
          <mxGeometry relative="1" as="geometry">
            <mxPoint x="504" y="375" as="sourcePoint" />
            <mxPoint x="530" y="240" as="targetPoint" />
          </mxGeometry>
        </mxCell>
        <mxCell id="lfD9yJDUr12pzseTFkDa-248" value="N" style="text;align=left;verticalAlign=middle;spacingLeft=4;spacingRight=4;overflow=hidden;points=[[0,0.5],[1,0.5]];portConstraint=eastwest;rotatable=0;whiteSpace=wrap;html=1;" parent="1" vertex="1">
          <mxGeometry x="504" y="350" width="80" height="30" as="geometry" />
        </mxCell>
        <mxCell id="lfD9yJDUr12pzseTFkDa-250" value="N" style="text;align=left;verticalAlign=middle;spacingLeft=4;spacingRight=4;overflow=hidden;points=[[0,0.5],[1,0.5]];portConstraint=eastwest;rotatable=0;whiteSpace=wrap;html=1;" parent="1" vertex="1">
          <mxGeometry x="280" y="320" width="80" height="30" as="geometry" />
        </mxCell>
      </root>
    </mxGraphModel>
  </diagram>
  <diagram id="IAsNNu1oWhsYdbqQoJzk" name="Conceptual">
    <mxGraphModel dx="2571" dy="2115" grid="1" gridSize="10" guides="1" tooltips="1" connect="1" arrows="1" fold="1" page="1" pageScale="1" pageWidth="827" pageHeight="1169" math="0" shadow="0">
      <root>
        <mxCell id="0" />
        <mxCell id="1" parent="0" />
        <mxCell id="17bXYgxsn5VR37YFO8bD-34" style="edgeStyle=orthogonalEdgeStyle;rounded=0;orthogonalLoop=1;jettySize=auto;html=1;entryX=0.5;entryY=1;entryDx=0;entryDy=0;startArrow=block;startFill=1;endArrow=none;endFill=0;fillColor=#e1d5e7;strokeColor=#9673a6;" edge="1" parent="1" source="dIvrSYYx6DZH6lWE-69O-1" target="17bXYgxsn5VR37YFO8bD-20">
          <mxGeometry relative="1" as="geometry" />
        </mxCell>
        <mxCell id="17bXYgxsn5VR37YFO8bD-35" style="edgeStyle=orthogonalEdgeStyle;rounded=0;orthogonalLoop=1;jettySize=auto;html=1;entryX=0.5;entryY=1;entryDx=0;entryDy=0;startArrow=block;startFill=1;endArrow=none;endFill=0;fillColor=#e1d5e7;strokeColor=#9673a6;" edge="1" parent="1" source="dIvrSYYx6DZH6lWE-69O-1" target="17bXYgxsn5VR37YFO8bD-10">
          <mxGeometry relative="1" as="geometry">
            <Array as="points">
              <mxPoint x="65" y="140" />
            </Array>
          </mxGeometry>
        </mxCell>
        <mxCell id="17bXYgxsn5VR37YFO8bD-36" style="edgeStyle=orthogonalEdgeStyle;rounded=0;orthogonalLoop=1;jettySize=auto;html=1;exitX=0;exitY=0.5;exitDx=0;exitDy=0;entryX=0.5;entryY=1;entryDx=0;entryDy=0;startArrow=block;startFill=1;endArrow=none;endFill=0;fillColor=#e1d5e7;strokeColor=#9673a6;" edge="1" parent="1" source="dIvrSYYx6DZH6lWE-69O-1" target="17bXYgxsn5VR37YFO8bD-26">
          <mxGeometry relative="1" as="geometry" />
        </mxCell>
        <mxCell id="17bXYgxsn5VR37YFO8bD-37" style="edgeStyle=orthogonalEdgeStyle;rounded=0;orthogonalLoop=1;jettySize=auto;html=1;exitX=0.5;exitY=0;exitDx=0;exitDy=0;entryX=0.5;entryY=1;entryDx=0;entryDy=0;startArrow=block;startFill=1;endArrow=none;endFill=0;fillColor=#e1d5e7;strokeColor=#9673a6;" edge="1" parent="1" source="dIvrSYYx6DZH6lWE-69O-1" target="17bXYgxsn5VR37YFO8bD-25">
          <mxGeometry relative="1" as="geometry" />
        </mxCell>
        <mxCell id="17bXYgxsn5VR37YFO8bD-38" style="edgeStyle=orthogonalEdgeStyle;rounded=0;orthogonalLoop=1;jettySize=auto;html=1;exitX=0.5;exitY=0;exitDx=0;exitDy=0;startArrow=block;startFill=1;endArrow=none;endFill=0;fillColor=#e1d5e7;strokeColor=#9673a6;" edge="1" parent="1" source="dIvrSYYx6DZH6lWE-69O-1" target="17bXYgxsn5VR37YFO8bD-24">
          <mxGeometry relative="1" as="geometry" />
        </mxCell>
        <mxCell id="17bXYgxsn5VR37YFO8bD-39" style="edgeStyle=orthogonalEdgeStyle;rounded=0;orthogonalLoop=1;jettySize=auto;html=1;exitX=0.5;exitY=0;exitDx=0;exitDy=0;startArrow=block;startFill=1;endArrow=none;endFill=0;fillColor=#e1d5e7;strokeColor=#9673a6;" edge="1" parent="1" source="dIvrSYYx6DZH6lWE-69O-1" target="17bXYgxsn5VR37YFO8bD-23">
          <mxGeometry relative="1" as="geometry" />
        </mxCell>
        <mxCell id="17bXYgxsn5VR37YFO8bD-40" style="edgeStyle=orthogonalEdgeStyle;rounded=0;orthogonalLoop=1;jettySize=auto;html=1;exitX=1;exitY=0.5;exitDx=0;exitDy=0;entryX=0.5;entryY=1;entryDx=0;entryDy=0;startArrow=block;startFill=1;endArrow=none;endFill=0;fillColor=#e1d5e7;strokeColor=#9673a6;" edge="1" parent="1" source="dIvrSYYx6DZH6lWE-69O-1" target="17bXYgxsn5VR37YFO8bD-22">
          <mxGeometry relative="1" as="geometry" />
        </mxCell>
        <mxCell id="17bXYgxsn5VR37YFO8bD-41" style="edgeStyle=orthogonalEdgeStyle;rounded=0;orthogonalLoop=1;jettySize=auto;html=1;exitX=1;exitY=0.5;exitDx=0;exitDy=0;entryX=0.5;entryY=1;entryDx=0;entryDy=0;startArrow=block;startFill=1;endArrow=none;endFill=0;fillColor=#e1d5e7;strokeColor=#9673a6;" edge="1" parent="1" source="dIvrSYYx6DZH6lWE-69O-1" target="17bXYgxsn5VR37YFO8bD-21">
          <mxGeometry relative="1" as="geometry" />
        </mxCell>
        <mxCell id="dIvrSYYx6DZH6lWE-69O-1" value="Paciente" style="rounded=1;whiteSpace=wrap;html=1;fillColor=#e1d5e7;strokeColor=#9673a6;" vertex="1" parent="1">
          <mxGeometry x="110" y="110" width="120" height="60" as="geometry" />
        </mxCell>
        <mxCell id="17bXYgxsn5VR37YFO8bD-2" value="Historial" style="rounded=1;whiteSpace=wrap;html=1;fillColor=#e1d5e7;strokeColor=#9673a6;" vertex="1" parent="1">
          <mxGeometry x="590" y="525" width="120" height="60" as="geometry" />
        </mxCell>
        <mxCell id="17bXYgxsn5VR37YFO8bD-3" value="Tratamiento" style="rounded=1;whiteSpace=wrap;html=1;fillColor=#e1d5e7;strokeColor=#9673a6;" vertex="1" parent="1">
          <mxGeometry x="110" y="525" width="120" height="60" as="geometry" />
        </mxCell>
        <mxCell id="17bXYgxsn5VR37YFO8bD-4" value="Cita" style="rounded=1;whiteSpace=wrap;html=1;fillColor=#e1d5e7;strokeColor=#9673a6;" vertex="1" parent="1">
          <mxGeometry x="354" y="290" width="120" height="60" as="geometry" />
        </mxCell>
        <mxCell id="17bXYgxsn5VR37YFO8bD-89" style="edgeStyle=orthogonalEdgeStyle;rounded=0;orthogonalLoop=1;jettySize=auto;html=1;exitX=1;exitY=0.5;exitDx=0;exitDy=0;endArrow=none;endFill=0;startArrow=classic;startFill=1;fillColor=#e1d5e7;strokeColor=#9673a6;" edge="1" parent="1" source="17bXYgxsn5VR37YFO8bD-5" target="17bXYgxsn5VR37YFO8bD-86">
          <mxGeometry relative="1" as="geometry" />
        </mxCell>
        <mxCell id="17bXYgxsn5VR37YFO8bD-90" style="edgeStyle=orthogonalEdgeStyle;rounded=0;orthogonalLoop=1;jettySize=auto;html=1;exitX=1;exitY=0.5;exitDx=0;exitDy=0;endArrow=none;endFill=0;startArrow=classic;startFill=1;fillColor=#e1d5e7;strokeColor=#9673a6;" edge="1" parent="1" source="17bXYgxsn5VR37YFO8bD-5">
          <mxGeometry relative="1" as="geometry">
            <mxPoint x="770" y="80" as="targetPoint" />
          </mxGeometry>
        </mxCell>
        <mxCell id="17bXYgxsn5VR37YFO8bD-91" style="edgeStyle=orthogonalEdgeStyle;rounded=0;orthogonalLoop=1;jettySize=auto;html=1;exitX=1;exitY=0.5;exitDx=0;exitDy=0;endArrow=none;endFill=0;startArrow=classic;startFill=1;fillColor=#e1d5e7;strokeColor=#9673a6;" edge="1" parent="1" source="17bXYgxsn5VR37YFO8bD-5">
          <mxGeometry relative="1" as="geometry">
            <mxPoint x="730" y="80" as="targetPoint" />
          </mxGeometry>
        </mxCell>
        <mxCell id="17bXYgxsn5VR37YFO8bD-92" style="edgeStyle=orthogonalEdgeStyle;rounded=0;orthogonalLoop=1;jettySize=auto;html=1;exitX=0.5;exitY=0;exitDx=0;exitDy=0;endArrow=none;endFill=0;startArrow=classic;startFill=1;fillColor=#e1d5e7;strokeColor=#9673a6;" edge="1" parent="1" source="17bXYgxsn5VR37YFO8bD-5">
          <mxGeometry relative="1" as="geometry">
            <mxPoint x="690" y="80" as="targetPoint" />
          </mxGeometry>
        </mxCell>
        <mxCell id="17bXYgxsn5VR37YFO8bD-93" style="edgeStyle=orthogonalEdgeStyle;rounded=0;orthogonalLoop=1;jettySize=auto;html=1;exitX=0.5;exitY=0;exitDx=0;exitDy=0;entryX=0.5;entryY=1;entryDx=0;entryDy=0;endArrow=none;endFill=0;startArrow=classic;startFill=1;fillColor=#e1d5e7;strokeColor=#9673a6;" edge="1" parent="1" source="17bXYgxsn5VR37YFO8bD-5" target="17bXYgxsn5VR37YFO8bD-80">
          <mxGeometry relative="1" as="geometry">
            <Array as="points">
              <mxPoint x="650" y="80" />
            </Array>
          </mxGeometry>
        </mxCell>
        <mxCell id="17bXYgxsn5VR37YFO8bD-94" style="edgeStyle=orthogonalEdgeStyle;rounded=0;orthogonalLoop=1;jettySize=auto;html=1;exitX=0.5;exitY=0;exitDx=0;exitDy=0;endArrow=none;endFill=0;startArrow=classic;startFill=1;fillColor=#e1d5e7;strokeColor=#9673a6;" edge="1" parent="1" source="17bXYgxsn5VR37YFO8bD-5">
          <mxGeometry relative="1" as="geometry">
            <mxPoint x="610" y="80" as="targetPoint" />
          </mxGeometry>
        </mxCell>
        <mxCell id="17bXYgxsn5VR37YFO8bD-5" value="Doctor" style="rounded=1;whiteSpace=wrap;html=1;fillColor=#e1d5e7;strokeColor=#9673a6;" vertex="1" parent="1">
          <mxGeometry x="590" y="110" width="120" height="60" as="geometry" />
        </mxCell>
        <mxCell id="17bXYgxsn5VR37YFO8bD-6" value="Genera" style="rhombus;whiteSpace=wrap;html=1;fillColor=#e1d5e7;strokeColor=#9673a6;" vertex="1" parent="1">
          <mxGeometry x="580" y="380" width="140" height="80" as="geometry" />
        </mxCell>
        <mxCell id="17bXYgxsn5VR37YFO8bD-7" value="Registro" style="rhombus;whiteSpace=wrap;html=1;fillColor=#e1d5e7;strokeColor=#9673a6;" vertex="1" parent="1">
          <mxGeometry x="100" y="380" width="140" height="80" as="geometry" />
        </mxCell>
        <mxCell id="17bXYgxsn5VR37YFO8bD-8" value="Agenda" style="rhombus;whiteSpace=wrap;html=1;fillColor=#e1d5e7;strokeColor=#9673a6;" vertex="1" parent="1">
          <mxGeometry x="450" y="160" width="140" height="80" as="geometry" />
        </mxCell>
        <mxCell id="17bXYgxsn5VR37YFO8bD-9" value="Agenda" style="rhombus;whiteSpace=wrap;html=1;fillColor=#e1d5e7;strokeColor=#9673a6;" vertex="1" parent="1">
          <mxGeometry x="230" y="160" width="140" height="80" as="geometry" />
        </mxCell>
        <mxCell id="17bXYgxsn5VR37YFO8bD-10" value="Nombre" style="ellipse;whiteSpace=wrap;html=1;rotation=0;textDirection=vertical-lr;fontSize=7;fillColor=#e1d5e7;strokeColor=#9673a6;" vertex="1" parent="1">
          <mxGeometry x="50" width="30" height="80" as="geometry" />
        </mxCell>
        <mxCell id="17bXYgxsn5VR37YFO8bD-145" style="edgeStyle=orthogonalEdgeStyle;rounded=0;orthogonalLoop=1;jettySize=auto;html=1;exitX=0;exitY=0.5;exitDx=0;exitDy=0;entryX=0.5;entryY=0;entryDx=0;entryDy=0;fillColor=#e1d5e7;strokeColor=#9673a6;" edge="1" parent="1" source="17bXYgxsn5VR37YFO8bD-20" target="17bXYgxsn5VR37YFO8bD-7">
          <mxGeometry relative="1" as="geometry" />
        </mxCell>
        <mxCell id="17bXYgxsn5VR37YFO8bD-146" style="edgeStyle=orthogonalEdgeStyle;rounded=0;orthogonalLoop=1;jettySize=auto;html=1;exitX=0;exitY=1;exitDx=0;exitDy=0;entryX=0;entryY=0.5;entryDx=0;entryDy=0;fillColor=#e1d5e7;strokeColor=#9673a6;" edge="1" parent="1" source="17bXYgxsn5VR37YFO8bD-20" target="17bXYgxsn5VR37YFO8bD-9">
          <mxGeometry relative="1" as="geometry">
            <Array as="points">
              <mxPoint y="68" />
              <mxPoint y="200" />
            </Array>
          </mxGeometry>
        </mxCell>
        <mxCell id="17bXYgxsn5VR37YFO8bD-20" value="Clave&lt;div&gt;Paciente&lt;/div&gt;" style="ellipse;whiteSpace=wrap;html=1;rotation=0;textDirection=vertical-lr;fontSize=7;fillColor=#e1d5e7;strokeColor=#9673a6;" vertex="1" parent="1">
          <mxGeometry x="10" width="30" height="80" as="geometry" />
        </mxCell>
        <mxCell id="17bXYgxsn5VR37YFO8bD-22" value="Email" style="ellipse;whiteSpace=wrap;html=1;rotation=0;textDirection=vertical-lr;fontSize=7;fillColor=#e1d5e7;strokeColor=#9673a6;" vertex="1" parent="1">
          <mxGeometry x="250" width="30" height="80" as="geometry" />
        </mxCell>
        <mxCell id="17bXYgxsn5VR37YFO8bD-23" value="Direccion" style="ellipse;whiteSpace=wrap;html=1;rotation=0;textDirection=vertical-lr;fontSize=7;fillColor=#e1d5e7;strokeColor=#9673a6;" vertex="1" parent="1">
          <mxGeometry x="210" width="30" height="80" as="geometry" />
        </mxCell>
        <mxCell id="17bXYgxsn5VR37YFO8bD-24" value="Telefono" style="ellipse;whiteSpace=wrap;html=1;rotation=0;textDirection=vertical-lr;fontSize=7;fillColor=#e1d5e7;strokeColor=#9673a6;" vertex="1" parent="1">
          <mxGeometry x="170" width="30" height="80" as="geometry" />
        </mxCell>
        <mxCell id="17bXYgxsn5VR37YFO8bD-25" value="Apellido&amp;nbsp;&lt;div&gt;Materno&lt;/div&gt;" style="ellipse;whiteSpace=wrap;html=1;rotation=0;textDirection=vertical-lr;fontSize=7;fillColor=#e1d5e7;strokeColor=#9673a6;" vertex="1" parent="1">
          <mxGeometry x="130" width="30" height="80" as="geometry" />
        </mxCell>
        <mxCell id="17bXYgxsn5VR37YFO8bD-26" value="Apellido&lt;div&gt;Paterno&lt;/div&gt;" style="ellipse;whiteSpace=wrap;html=1;rotation=0;textDirection=vertical-lr;fontSize=7;fillColor=#e1d5e7;strokeColor=#9673a6;" vertex="1" parent="1">
          <mxGeometry x="90" width="30" height="80" as="geometry" />
        </mxCell>
        <mxCell id="17bXYgxsn5VR37YFO8bD-21" value="Fecha&lt;div&gt;de&lt;/div&gt;&lt;div&gt;Nacimiento&lt;/div&gt;" style="ellipse;whiteSpace=wrap;html=1;rotation=0;textDirection=vertical-lr;fontSize=7;fillColor=#e1d5e7;strokeColor=#9673a6;" vertex="1" parent="1">
          <mxGeometry x="290" width="30" height="80" as="geometry" />
        </mxCell>
        <mxCell id="17bXYgxsn5VR37YFO8bD-75" style="edgeStyle=orthogonalEdgeStyle;rounded=0;orthogonalLoop=1;jettySize=auto;html=1;entryX=0.5;entryY=1;entryDx=0;entryDy=0;startArrow=classic;startFill=1;endArrow=none;endFill=0;fillColor=#e1d5e7;strokeColor=#9673a6;" edge="1" parent="1" target="17bXYgxsn5VR37YFO8bD-83" source="17bXYgxsn5VR37YFO8bD-5">
          <mxGeometry relative="1" as="geometry">
            <mxPoint x="570" y="109.5" as="sourcePoint" />
          </mxGeometry>
        </mxCell>
        <mxCell id="17bXYgxsn5VR37YFO8bD-76" style="edgeStyle=orthogonalEdgeStyle;rounded=0;orthogonalLoop=1;jettySize=auto;html=1;exitX=0;exitY=0.5;exitDx=0;exitDy=0;startArrow=classic;startFill=1;endArrow=none;endFill=0;fillColor=#e1d5e7;strokeColor=#9673a6;" edge="1" parent="1" target="17bXYgxsn5VR37YFO8bD-82" source="17bXYgxsn5VR37YFO8bD-5">
          <mxGeometry relative="1" as="geometry">
            <mxPoint x="570" y="109.5" as="sourcePoint" />
          </mxGeometry>
        </mxCell>
        <mxCell id="17bXYgxsn5VR37YFO8bD-96" style="edgeStyle=orthogonalEdgeStyle;rounded=0;orthogonalLoop=1;jettySize=auto;html=1;exitX=0.5;exitY=1;exitDx=0;exitDy=0;entryX=0;entryY=0.5;entryDx=0;entryDy=0;fillColor=#e1d5e7;strokeColor=#9673a6;" edge="1" parent="1" source="17bXYgxsn5VR37YFO8bD-78" target="17bXYgxsn5VR37YFO8bD-5">
          <mxGeometry relative="1" as="geometry" />
        </mxCell>
        <mxCell id="17bXYgxsn5VR37YFO8bD-78" value="Nombre" style="ellipse;whiteSpace=wrap;html=1;rotation=0;fontSize=7;textDirection=vertical-lr;fillColor=#e1d5e7;strokeColor=#9673a6;" vertex="1" parent="1">
          <mxGeometry x="437" y="-0.5" width="30" height="80" as="geometry" />
        </mxCell>
        <mxCell id="17bXYgxsn5VR37YFO8bD-97" style="edgeStyle=orthogonalEdgeStyle;rounded=0;orthogonalLoop=1;jettySize=auto;html=1;exitX=0.5;exitY=1;exitDx=0;exitDy=0;entryX=0;entryY=0.75;entryDx=0;entryDy=0;fillColor=#e1d5e7;strokeColor=#9673a6;" edge="1" parent="1" source="17bXYgxsn5VR37YFO8bD-79" target="17bXYgxsn5VR37YFO8bD-5">
          <mxGeometry relative="1" as="geometry" />
        </mxCell>
        <mxCell id="17bXYgxsn5VR37YFO8bD-149" style="edgeStyle=orthogonalEdgeStyle;rounded=0;orthogonalLoop=1;jettySize=auto;html=1;exitX=0.5;exitY=0;exitDx=0;exitDy=0;entryX=0;entryY=0.5;entryDx=0;entryDy=0;fillColor=#e1d5e7;strokeColor=#9673a6;" edge="1" parent="1" source="17bXYgxsn5VR37YFO8bD-79" target="17bXYgxsn5VR37YFO8bD-8">
          <mxGeometry relative="1" as="geometry">
            <Array as="points">
              <mxPoint x="412" y="-20" />
              <mxPoint x="380" y="-20" />
              <mxPoint x="380" y="200" />
            </Array>
          </mxGeometry>
        </mxCell>
        <mxCell id="17bXYgxsn5VR37YFO8bD-79" value="Clave&lt;div&gt;Doctor&lt;/div&gt;" style="ellipse;whiteSpace=wrap;html=1;rotation=0;fontSize=7;textDirection=vertical-lr;fillColor=#e1d5e7;strokeColor=#9673a6;" vertex="1" parent="1">
          <mxGeometry x="397" y="-0.5" width="30" height="80" as="geometry" />
        </mxCell>
        <mxCell id="17bXYgxsn5VR37YFO8bD-80" value="Email" style="ellipse;whiteSpace=wrap;html=1;rotation=0;fontSize=7;textDirection=vertical-lr;fillColor=#e1d5e7;strokeColor=#9673a6;" vertex="1" parent="1">
          <mxGeometry x="637" y="-0.5" width="30" height="80" as="geometry" />
        </mxCell>
        <mxCell id="17bXYgxsn5VR37YFO8bD-81" value="Direccion" style="ellipse;whiteSpace=wrap;html=1;rotation=0;fontSize=7;textDirection=vertical-lr;fillColor=#e1d5e7;strokeColor=#9673a6;" vertex="1" parent="1">
          <mxGeometry x="597" y="-0.5" width="30" height="80" as="geometry" />
        </mxCell>
        <mxCell id="17bXYgxsn5VR37YFO8bD-82" value="Telefono" style="ellipse;whiteSpace=wrap;html=1;rotation=0;fontSize=7;textDirection=vertical-lr;fillColor=#e1d5e7;strokeColor=#9673a6;" vertex="1" parent="1">
          <mxGeometry x="557" y="-0.5" width="30" height="80" as="geometry" />
        </mxCell>
        <mxCell id="17bXYgxsn5VR37YFO8bD-83" value="Apellido&amp;nbsp;&lt;div&gt;Materno&lt;/div&gt;" style="ellipse;whiteSpace=wrap;html=1;rotation=0;fontSize=7;textDirection=vertical-lr;fillColor=#e1d5e7;strokeColor=#9673a6;" vertex="1" parent="1">
          <mxGeometry x="517" y="-0.5" width="30" height="80" as="geometry" />
        </mxCell>
        <mxCell id="17bXYgxsn5VR37YFO8bD-95" style="edgeStyle=orthogonalEdgeStyle;rounded=0;orthogonalLoop=1;jettySize=auto;html=1;exitX=0.5;exitY=1;exitDx=0;exitDy=0;entryX=0;entryY=0.5;entryDx=0;entryDy=0;endArrow=classic;endFill=1;startArrow=none;startFill=0;fillColor=#e1d5e7;strokeColor=#9673a6;" edge="1" parent="1" source="17bXYgxsn5VR37YFO8bD-84" target="17bXYgxsn5VR37YFO8bD-5">
          <mxGeometry relative="1" as="geometry" />
        </mxCell>
        <mxCell id="17bXYgxsn5VR37YFO8bD-84" value="Apellido&lt;div&gt;Paterno&lt;/div&gt;" style="ellipse;whiteSpace=wrap;html=1;rotation=0;fontSize=7;textDirection=vertical-lr;fillColor=#e1d5e7;strokeColor=#9673a6;" vertex="1" parent="1">
          <mxGeometry x="477" y="-0.5" width="30" height="80" as="geometry" />
        </mxCell>
        <mxCell id="17bXYgxsn5VR37YFO8bD-85" value="Fecha&lt;div&gt;de&lt;/div&gt;&lt;div&gt;Nacimiento&lt;/div&gt;" style="ellipse;whiteSpace=wrap;html=1;rotation=0;fontSize=7;textDirection=vertical-lr;fillColor=#e1d5e7;strokeColor=#9673a6;" vertex="1" parent="1">
          <mxGeometry x="677" y="-0.5" width="30" height="80" as="geometry" />
        </mxCell>
        <mxCell id="17bXYgxsn5VR37YFO8bD-86" value="Cedula" style="ellipse;whiteSpace=wrap;html=1;rotation=0;fontSize=7;textDirection=vertical-lr;" vertex="1" parent="1">
          <mxGeometry x="797" width="30" height="80" as="geometry" />
        </mxCell>
        <mxCell id="17bXYgxsn5VR37YFO8bD-87" value="Especialidad" style="ellipse;whiteSpace=wrap;html=1;rotation=0;fontSize=7;textDirection=vertical-lr;fillColor=#e1d5e7;strokeColor=#9673a6;" vertex="1" parent="1">
          <mxGeometry x="757" y="-0.5" width="30" height="80" as="geometry" />
        </mxCell>
        <mxCell id="17bXYgxsn5VR37YFO8bD-88" value="Horario" style="ellipse;whiteSpace=wrap;html=1;rotation=0;fontSize=7;textDirection=vertical-lr;fillColor=#e1d5e7;strokeColor=#9673a6;" vertex="1" parent="1">
          <mxGeometry x="717" y="-0.5" width="30" height="80" as="geometry" />
        </mxCell>
        <mxCell id="17bXYgxsn5VR37YFO8bD-105" style="edgeStyle=orthogonalEdgeStyle;rounded=0;orthogonalLoop=1;jettySize=auto;html=1;exitX=0.5;exitY=0;exitDx=0;exitDy=0;entryX=0.5;entryY=1;entryDx=0;entryDy=0;fillColor=#e1d5e7;strokeColor=#9673a6;" edge="1" parent="1" source="17bXYgxsn5VR37YFO8bD-99" target="17bXYgxsn5VR37YFO8bD-3">
          <mxGeometry relative="1" as="geometry" />
        </mxCell>
        <mxCell id="17bXYgxsn5VR37YFO8bD-99" value="Alergias" style="ellipse;whiteSpace=wrap;html=1;rotation=0;fontSize=7;textDirection=vertical-lr;fillColor=#e1d5e7;strokeColor=#9673a6;" vertex="1" parent="1">
          <mxGeometry x="130" y="640" width="30" height="80" as="geometry" />
        </mxCell>
        <mxCell id="17bXYgxsn5VR37YFO8bD-106" style="edgeStyle=orthogonalEdgeStyle;rounded=0;orthogonalLoop=1;jettySize=auto;html=1;exitX=0.5;exitY=0;exitDx=0;exitDy=0;entryX=0.5;entryY=1;entryDx=0;entryDy=0;fillColor=#e1d5e7;strokeColor=#9673a6;" edge="1" parent="1" source="17bXYgxsn5VR37YFO8bD-100" target="17bXYgxsn5VR37YFO8bD-3">
          <mxGeometry relative="1" as="geometry" />
        </mxCell>
        <mxCell id="17bXYgxsn5VR37YFO8bD-100" value="Fecha" style="ellipse;whiteSpace=wrap;html=1;rotation=0;fontSize=7;textDirection=vertical-lr;fillColor=#e1d5e7;strokeColor=#9673a6;" vertex="1" parent="1">
          <mxGeometry x="170" y="640" width="30" height="80" as="geometry" />
        </mxCell>
        <mxCell id="17bXYgxsn5VR37YFO8bD-104" style="edgeStyle=orthogonalEdgeStyle;rounded=0;orthogonalLoop=1;jettySize=auto;html=1;exitX=0.5;exitY=0;exitDx=0;exitDy=0;entryX=0.5;entryY=1;entryDx=0;entryDy=0;fillColor=#e1d5e7;strokeColor=#9673a6;" edge="1" parent="1" source="17bXYgxsn5VR37YFO8bD-101" target="17bXYgxsn5VR37YFO8bD-3">
          <mxGeometry relative="1" as="geometry" />
        </mxCell>
        <mxCell id="17bXYgxsn5VR37YFO8bD-101" value="Enfermedades" style="ellipse;whiteSpace=wrap;html=1;rotation=0;fontSize=7;textDirection=vertical-lr;fillColor=#e1d5e7;strokeColor=#9673a6;" vertex="1" parent="1">
          <mxGeometry x="90" y="640" width="30" height="80" as="geometry" />
        </mxCell>
        <mxCell id="17bXYgxsn5VR37YFO8bD-107" style="edgeStyle=orthogonalEdgeStyle;rounded=0;orthogonalLoop=1;jettySize=auto;html=1;exitX=0.5;exitY=0;exitDx=0;exitDy=0;entryX=0.5;entryY=1;entryDx=0;entryDy=0;fillColor=#e1d5e7;strokeColor=#9673a6;" edge="1" parent="1" source="17bXYgxsn5VR37YFO8bD-102" target="17bXYgxsn5VR37YFO8bD-3">
          <mxGeometry relative="1" as="geometry" />
        </mxCell>
        <mxCell id="17bXYgxsn5VR37YFO8bD-144" style="edgeStyle=orthogonalEdgeStyle;rounded=0;orthogonalLoop=1;jettySize=auto;html=1;exitX=0.5;exitY=1;exitDx=0;exitDy=0;entryX=0.5;entryY=1;entryDx=0;entryDy=0;fillColor=#e1d5e7;strokeColor=#9673a6;" edge="1" parent="1" source="17bXYgxsn5VR37YFO8bD-102" target="17bXYgxsn5VR37YFO8bD-7">
          <mxGeometry relative="1" as="geometry">
            <Array as="points">
              <mxPoint x="225" y="740" />
              <mxPoint x="250" y="740" />
              <mxPoint x="250" y="480" />
              <mxPoint x="170" y="480" />
            </Array>
          </mxGeometry>
        </mxCell>
        <mxCell id="17bXYgxsn5VR37YFO8bD-102" value="Clave" style="ellipse;whiteSpace=wrap;html=1;rotation=0;fontSize=7;textDirection=vertical-lr;fillColor=#e1d5e7;strokeColor=#9673a6;" vertex="1" parent="1">
          <mxGeometry x="210" y="640" width="30" height="80" as="geometry" />
        </mxCell>
        <mxCell id="17bXYgxsn5VR37YFO8bD-108" style="edgeStyle=orthogonalEdgeStyle;rounded=0;orthogonalLoop=1;jettySize=auto;html=1;exitX=0.5;exitY=0;exitDx=0;exitDy=0;entryX=0.5;entryY=1;entryDx=0;entryDy=0;fillColor=#e1d5e7;strokeColor=#9673a6;" edge="1" parent="1" source="17bXYgxsn5VR37YFO8bD-109">
          <mxGeometry relative="1" as="geometry">
            <mxPoint x="650" y="585" as="targetPoint" />
          </mxGeometry>
        </mxCell>
        <mxCell id="17bXYgxsn5VR37YFO8bD-109" value="Duracion" style="ellipse;whiteSpace=wrap;html=1;rotation=0;fontSize=7;textDirection=vertical-lr;fillColor=#e1d5e7;strokeColor=#9673a6;" vertex="1" parent="1">
          <mxGeometry x="610" y="640" width="30" height="80" as="geometry" />
        </mxCell>
        <mxCell id="17bXYgxsn5VR37YFO8bD-110" style="edgeStyle=orthogonalEdgeStyle;rounded=0;orthogonalLoop=1;jettySize=auto;html=1;exitX=0.5;exitY=0;exitDx=0;exitDy=0;entryX=0.5;entryY=1;entryDx=0;entryDy=0;fillColor=#e1d5e7;strokeColor=#9673a6;" edge="1" parent="1" source="17bXYgxsn5VR37YFO8bD-111">
          <mxGeometry relative="1" as="geometry">
            <mxPoint x="650" y="585" as="targetPoint" />
          </mxGeometry>
        </mxCell>
        <mxCell id="17bXYgxsn5VR37YFO8bD-111" value="Diagnostico" style="ellipse;whiteSpace=wrap;html=1;rotation=0;fontSize=7;textDirection=vertical-lr;fillColor=#e1d5e7;strokeColor=#9673a6;" vertex="1" parent="1">
          <mxGeometry x="650" y="640" width="30" height="80" as="geometry" />
        </mxCell>
        <mxCell id="17bXYgxsn5VR37YFO8bD-112" style="edgeStyle=orthogonalEdgeStyle;rounded=0;orthogonalLoop=1;jettySize=auto;html=1;exitX=0.5;exitY=0;exitDx=0;exitDy=0;entryX=0.5;entryY=1;entryDx=0;entryDy=0;fillColor=#e1d5e7;strokeColor=#9673a6;" edge="1" parent="1" source="17bXYgxsn5VR37YFO8bD-113">
          <mxGeometry relative="1" as="geometry">
            <mxPoint x="650" y="585" as="targetPoint" />
          </mxGeometry>
        </mxCell>
        <mxCell id="17bXYgxsn5VR37YFO8bD-113" value="Medicamentos" style="ellipse;whiteSpace=wrap;html=1;rotation=0;fontSize=7;textDirection=vertical-lr;fillColor=#e1d5e7;strokeColor=#9673a6;" vertex="1" parent="1">
          <mxGeometry x="570" y="640" width="30" height="80" as="geometry" />
        </mxCell>
        <mxCell id="17bXYgxsn5VR37YFO8bD-114" style="edgeStyle=orthogonalEdgeStyle;rounded=0;orthogonalLoop=1;jettySize=auto;html=1;exitX=0.5;exitY=0;exitDx=0;exitDy=0;entryX=0.5;entryY=1;entryDx=0;entryDy=0;fillColor=#e1d5e7;strokeColor=#9673a6;" edge="1" parent="1" source="17bXYgxsn5VR37YFO8bD-115">
          <mxGeometry relative="1" as="geometry">
            <mxPoint x="650" y="585" as="targetPoint" />
          </mxGeometry>
        </mxCell>
        <mxCell id="17bXYgxsn5VR37YFO8bD-142" style="edgeStyle=orthogonalEdgeStyle;rounded=0;orthogonalLoop=1;jettySize=auto;html=1;exitX=0.5;exitY=1;exitDx=0;exitDy=0;entryX=1;entryY=0.5;entryDx=0;entryDy=0;fillColor=#e1d5e7;strokeColor=#9673a6;" edge="1" parent="1" source="17bXYgxsn5VR37YFO8bD-115" target="17bXYgxsn5VR37YFO8bD-6">
          <mxGeometry relative="1" as="geometry">
            <mxPoint x="810" y="420" as="targetPoint" />
            <Array as="points">
              <mxPoint x="705" y="740" />
              <mxPoint x="800" y="740" />
              <mxPoint x="800" y="420" />
            </Array>
          </mxGeometry>
        </mxCell>
        <mxCell id="17bXYgxsn5VR37YFO8bD-115" value="IdCita" style="ellipse;whiteSpace=wrap;html=1;rotation=0;fontSize=7;textDirection=vertical-lr;fillColor=#e1d5e7;strokeColor=#9673a6;" vertex="1" parent="1">
          <mxGeometry x="690" y="640" width="30" height="80" as="geometry" />
        </mxCell>
        <mxCell id="17bXYgxsn5VR37YFO8bD-124" value="Clave" style="ellipse;whiteSpace=wrap;html=1;rotation=0;fontSize=7;textDirection=vertical-lr;fillColor=#e1d5e7;strokeColor=#9673a6;" vertex="1" parent="1">
          <mxGeometry x="727" y="640" width="30" height="80" as="geometry" />
        </mxCell>
        <mxCell id="17bXYgxsn5VR37YFO8bD-135" style="edgeStyle=orthogonalEdgeStyle;rounded=0;orthogonalLoop=1;jettySize=auto;html=1;exitX=0.5;exitY=0;exitDx=0;exitDy=0;entryX=0.5;entryY=1;entryDx=0;entryDy=0;fillColor=#e1d5e7;strokeColor=#9673a6;" edge="1" parent="1" source="17bXYgxsn5VR37YFO8bD-126" target="17bXYgxsn5VR37YFO8bD-4">
          <mxGeometry relative="1" as="geometry" />
        </mxCell>
        <mxCell id="17bXYgxsn5VR37YFO8bD-126" value="Diagnostico" style="ellipse;whiteSpace=wrap;html=1;rotation=0;textDirection=vertical-lr;fontSize=7;fillColor=#e1d5e7;strokeColor=#9673a6;" vertex="1" parent="1">
          <mxGeometry x="297" y="410" width="30" height="80" as="geometry" />
        </mxCell>
        <mxCell id="17bXYgxsn5VR37YFO8bD-134" style="edgeStyle=orthogonalEdgeStyle;rounded=0;orthogonalLoop=1;jettySize=auto;html=1;exitX=0.5;exitY=0;exitDx=0;exitDy=0;entryX=0.5;entryY=1;entryDx=0;entryDy=0;fillColor=#e1d5e7;strokeColor=#9673a6;" edge="1" parent="1" source="17bXYgxsn5VR37YFO8bD-127" target="17bXYgxsn5VR37YFO8bD-4">
          <mxGeometry relative="1" as="geometry" />
        </mxCell>
        <mxCell id="17bXYgxsn5VR37YFO8bD-127" value="Costo" style="ellipse;whiteSpace=wrap;html=1;rotation=0;textDirection=vertical-lr;fontSize=7;fillColor=#e1d5e7;strokeColor=#9673a6;" vertex="1" parent="1">
          <mxGeometry x="257" y="410" width="30" height="80" as="geometry" />
        </mxCell>
        <mxCell id="17bXYgxsn5VR37YFO8bD-140" style="edgeStyle=orthogonalEdgeStyle;rounded=0;orthogonalLoop=1;jettySize=auto;html=1;exitX=0.5;exitY=0;exitDx=0;exitDy=0;fillColor=#e1d5e7;strokeColor=#9673a6;" edge="1" parent="1" source="17bXYgxsn5VR37YFO8bD-128">
          <mxGeometry relative="1" as="geometry">
            <mxPoint x="410" y="350" as="targetPoint" />
          </mxGeometry>
        </mxCell>
        <mxCell id="17bXYgxsn5VR37YFO8bD-148" style="edgeStyle=orthogonalEdgeStyle;rounded=0;orthogonalLoop=1;jettySize=auto;html=1;exitX=0.5;exitY=1;exitDx=0;exitDy=0;fillColor=#e1d5e7;strokeColor=#9673a6;" edge="1" parent="1" source="17bXYgxsn5VR37YFO8bD-128" target="17bXYgxsn5VR37YFO8bD-8">
          <mxGeometry relative="1" as="geometry">
            <Array as="points">
              <mxPoint x="512" y="510" />
              <mxPoint x="580" y="510" />
              <mxPoint x="580" y="325" />
              <mxPoint x="520" y="325" />
            </Array>
          </mxGeometry>
        </mxCell>
        <mxCell id="17bXYgxsn5VR37YFO8bD-128" value="ClaveDoctor" style="ellipse;whiteSpace=wrap;html=1;rotation=0;textDirection=vertical-lr;fontSize=7;fillColor=#e1d5e7;strokeColor=#9673a6;" vertex="1" parent="1">
          <mxGeometry x="497" y="410" width="30" height="80" as="geometry" />
        </mxCell>
        <mxCell id="17bXYgxsn5VR37YFO8bD-139" style="edgeStyle=orthogonalEdgeStyle;rounded=0;orthogonalLoop=1;jettySize=auto;html=1;exitX=0.5;exitY=0;exitDx=0;exitDy=0;fillColor=#e1d5e7;strokeColor=#9673a6;" edge="1" parent="1" source="17bXYgxsn5VR37YFO8bD-129">
          <mxGeometry relative="1" as="geometry">
            <mxPoint x="410" y="350" as="targetPoint" />
          </mxGeometry>
        </mxCell>
        <mxCell id="17bXYgxsn5VR37YFO8bD-143" style="edgeStyle=orthogonalEdgeStyle;rounded=0;orthogonalLoop=1;jettySize=auto;html=1;exitX=0.5;exitY=1;exitDx=0;exitDy=0;entryX=0.5;entryY=1;entryDx=0;entryDy=0;fillColor=#e1d5e7;strokeColor=#9673a6;" edge="1" parent="1" source="17bXYgxsn5VR37YFO8bD-129" target="17bXYgxsn5VR37YFO8bD-6">
          <mxGeometry relative="1" as="geometry" />
        </mxCell>
        <mxCell id="17bXYgxsn5VR37YFO8bD-129" value="IdCita" style="ellipse;whiteSpace=wrap;html=1;rotation=0;textDirection=vertical-lr;fontSize=7;fillColor=#e1d5e7;strokeColor=#9673a6;" vertex="1" parent="1">
          <mxGeometry x="457" y="410" width="30" height="80" as="geometry" />
        </mxCell>
        <mxCell id="17bXYgxsn5VR37YFO8bD-138" style="edgeStyle=orthogonalEdgeStyle;rounded=0;orthogonalLoop=1;jettySize=auto;html=1;exitX=0.5;exitY=0;exitDx=0;exitDy=0;fillColor=#e1d5e7;strokeColor=#9673a6;" edge="1" parent="1" source="17bXYgxsn5VR37YFO8bD-130">
          <mxGeometry relative="1" as="geometry">
            <mxPoint x="410" y="350" as="targetPoint" />
          </mxGeometry>
        </mxCell>
        <mxCell id="17bXYgxsn5VR37YFO8bD-130" value="Fecha" style="ellipse;whiteSpace=wrap;html=1;rotation=0;textDirection=vertical-lr;fontSize=7;fillColor=#e1d5e7;strokeColor=#9673a6;" vertex="1" parent="1">
          <mxGeometry x="417" y="410" width="30" height="80" as="geometry" />
        </mxCell>
        <mxCell id="17bXYgxsn5VR37YFO8bD-137" style="edgeStyle=orthogonalEdgeStyle;rounded=0;orthogonalLoop=1;jettySize=auto;html=1;exitX=0.5;exitY=0;exitDx=0;exitDy=0;fillColor=#e1d5e7;strokeColor=#9673a6;" edge="1" parent="1" source="17bXYgxsn5VR37YFO8bD-131">
          <mxGeometry relative="1" as="geometry">
            <mxPoint x="410" y="350" as="targetPoint" />
          </mxGeometry>
        </mxCell>
        <mxCell id="17bXYgxsn5VR37YFO8bD-131" value="HoraInicio" style="ellipse;whiteSpace=wrap;html=1;rotation=0;textDirection=vertical-lr;fontSize=7;fillColor=#e1d5e7;strokeColor=#9673a6;" vertex="1" parent="1">
          <mxGeometry x="377" y="410" width="30" height="80" as="geometry" />
        </mxCell>
        <mxCell id="17bXYgxsn5VR37YFO8bD-136" style="edgeStyle=orthogonalEdgeStyle;rounded=0;orthogonalLoop=1;jettySize=auto;html=1;exitX=0.5;exitY=0;exitDx=0;exitDy=0;entryX=0.5;entryY=1;entryDx=0;entryDy=0;fillColor=#e1d5e7;strokeColor=#9673a6;" edge="1" parent="1" source="17bXYgxsn5VR37YFO8bD-132" target="17bXYgxsn5VR37YFO8bD-4">
          <mxGeometry relative="1" as="geometry" />
        </mxCell>
        <mxCell id="17bXYgxsn5VR37YFO8bD-132" value="HoraFinal" style="ellipse;whiteSpace=wrap;html=1;rotation=0;textDirection=vertical-lr;fontSize=7;fillColor=#e1d5e7;strokeColor=#9673a6;" vertex="1" parent="1">
          <mxGeometry x="337" y="410" width="30" height="80" as="geometry" />
        </mxCell>
        <mxCell id="17bXYgxsn5VR37YFO8bD-141" style="edgeStyle=orthogonalEdgeStyle;rounded=0;orthogonalLoop=1;jettySize=auto;html=1;exitX=0.5;exitY=0;exitDx=0;exitDy=0;fillColor=#e1d5e7;strokeColor=#9673a6;" edge="1" parent="1" source="17bXYgxsn5VR37YFO8bD-133">
          <mxGeometry relative="1" as="geometry">
            <mxPoint x="410" y="350" as="targetPoint" />
          </mxGeometry>
        </mxCell>
        <mxCell id="17bXYgxsn5VR37YFO8bD-147" style="edgeStyle=orthogonalEdgeStyle;rounded=0;orthogonalLoop=1;jettySize=auto;html=1;exitX=1;exitY=0.5;exitDx=0;exitDy=0;entryX=0.5;entryY=1;entryDx=0;entryDy=0;fillColor=#e1d5e7;strokeColor=#9673a6;" edge="1" parent="1" source="17bXYgxsn5VR37YFO8bD-133" target="17bXYgxsn5VR37YFO8bD-9">
          <mxGeometry relative="1" as="geometry">
            <Array as="points">
              <mxPoint x="570" y="450" />
              <mxPoint x="570" y="270" />
              <mxPoint x="300" y="270" />
            </Array>
          </mxGeometry>
        </mxCell>
        <mxCell id="17bXYgxsn5VR37YFO8bD-133" value="ClavePaciente" style="ellipse;whiteSpace=wrap;html=1;rotation=0;textDirection=vertical-lr;fontSize=7;fillColor=#e1d5e7;strokeColor=#9673a6;" vertex="1" parent="1">
          <mxGeometry x="537" y="410" width="30" height="80" as="geometry" />
        </mxCell>
        <mxCell id="17bXYgxsn5VR37YFO8bD-150" value="1" style="text;html=1;align=center;verticalAlign=middle;whiteSpace=wrap;rounded=0;fillColor=#e1d5e7;strokeColor=#9673a6;" vertex="1" parent="1">
          <mxGeometry x="-30" y="10" width="60" height="30" as="geometry" />
        </mxCell>
        <mxCell id="17bXYgxsn5VR37YFO8bD-159" value="1" style="text;html=1;align=center;verticalAlign=middle;whiteSpace=wrap;rounded=0;fillColor=#e1d5e7;strokeColor=#9673a6;" vertex="1" parent="1">
          <mxGeometry x="387" y="-30" width="60" height="30" as="geometry" />
        </mxCell>
        <mxCell id="17bXYgxsn5VR37YFO8bD-160" value="1" style="text;html=1;align=center;verticalAlign=middle;whiteSpace=wrap;rounded=0;fillColor=#e1d5e7;strokeColor=#9673a6;" vertex="1" parent="1">
          <mxGeometry x="-20" y="70" width="60" height="30" as="geometry" />
        </mxCell>
        <mxCell id="17bXYgxsn5VR37YFO8bD-161" value="1" style="text;html=1;align=center;verticalAlign=middle;whiteSpace=wrap;rounded=0;fillColor=#e1d5e7;strokeColor=#9673a6;" vertex="1" parent="1">
          <mxGeometry x="450" y="480" width="60" height="30" as="geometry" />
        </mxCell>
        <mxCell id="17bXYgxsn5VR37YFO8bD-162" value="1" style="text;html=1;align=center;verticalAlign=middle;whiteSpace=wrap;rounded=0;fillColor=#e1d5e7;strokeColor=#9673a6;" vertex="1" parent="1">
          <mxGeometry x="210" y="710" width="60" height="30" as="geometry" />
        </mxCell>
        <mxCell id="17bXYgxsn5VR37YFO8bD-164" value="N" style="text;html=1;align=center;verticalAlign=middle;whiteSpace=wrap;rounded=0;fillColor=#e1d5e7;strokeColor=#9673a6;" vertex="1" parent="1">
          <mxGeometry x="690" y="710" width="60" height="30" as="geometry" />
        </mxCell>
        <mxCell id="17bXYgxsn5VR37YFO8bD-165" value="N" style="text;html=1;align=center;verticalAlign=middle;whiteSpace=wrap;rounded=0;fillColor=#e1d5e7;strokeColor=#9673a6;" vertex="1" parent="1">
          <mxGeometry x="497" y="480" width="60" height="30" as="geometry" />
        </mxCell>
        <mxCell id="17bXYgxsn5VR37YFO8bD-166" value="N" style="text;html=1;align=center;verticalAlign=middle;whiteSpace=wrap;rounded=0;fillColor=#e1d5e7;strokeColor=#9673a6;" vertex="1" parent="1">
          <mxGeometry x="537" y="380" width="60" height="30" as="geometry" />
        </mxCell>
      </root>
    </mxGraphModel>
  </diagram>
</mxfile>
